<svg width="60" height="60" viewBox="0 0 60 60" fill="none" xmlns="http://www.w3.org/2000/svg">
<circle cx="30" cy="30" r="29" stroke="white" stroke-width="2"/>
<path d="M25.703 27.4336V38H22.8807V27.4336H25.703ZM22.705 24.6797C22.705 24.2695 22.8482 23.931 23.1346 23.6641C23.4211 23.3971 23.8052 23.2637 24.287 23.2637C24.7622 23.2637 25.1431 23.3971 25.4296 23.6641C25.7225 23.931 25.869 24.2695 25.869 24.6797C25.869 25.0898 25.7225 25.4284 25.4296 25.6953C25.1431 25.9622 24.7622 26.0957 24.287 26.0957C23.8052 26.0957 23.4211 25.9622 23.1346 25.6953C22.8482 25.4284 22.705 25.0898 22.705 24.6797ZM34.7167 27.4336H37.2655V37.6484C37.2655 38.612 37.0507 39.429 36.621 40.0996C36.1978 40.7767 35.6053 41.2878 34.8436 41.6328C34.0819 41.9844 33.1965 42.1602 32.1874 42.1602C31.7447 42.1602 31.2759 42.1016 30.7811 41.9844C30.2928 41.8672 29.8241 41.6849 29.3749 41.4375C28.9322 41.1901 28.5611 40.8776 28.2616 40.5L29.5018 38.8398C29.8274 39.2174 30.205 39.5104 30.6346 39.7188C31.0643 39.9336 31.5396 40.041 32.0604 40.041C32.5682 40.041 32.9979 39.9466 33.3495 39.7578C33.701 39.5755 33.9712 39.3053 34.16 38.9473C34.3488 38.5957 34.4432 38.1693 34.4432 37.668V29.875L34.7167 27.4336ZM27.6073 32.8438V32.6387C27.6073 31.8314 27.705 31.099 27.9003 30.4414C28.1021 29.7773 28.3853 29.2077 28.7499 28.7324C29.121 28.2572 29.5702 27.8893 30.0975 27.6289C30.6249 27.3685 31.2206 27.2383 31.8846 27.2383C32.5878 27.2383 33.177 27.3685 33.6522 27.6289C34.1275 27.8893 34.5181 28.2604 34.8241 28.7422C35.1301 29.2174 35.3677 29.7806 35.537 30.4316C35.7128 31.0762 35.8495 31.7826 35.9471 32.5508V33C35.8495 33.7357 35.703 34.4193 35.5077 35.0508C35.3124 35.6823 35.0552 36.2357 34.7362 36.7109C34.4172 37.1797 34.0201 37.5443 33.5448 37.8047C33.076 38.0651 32.5162 38.1953 31.8651 38.1953C31.2141 38.1953 30.6249 38.0618 30.0975 37.7949C29.5767 37.528 29.1307 37.1536 28.7596 36.6719C28.3885 36.1901 28.1021 35.6237 27.9003 34.9727C27.705 34.3216 27.6073 33.612 27.6073 32.8438ZM30.4198 32.6387V32.8438C30.4198 33.2799 30.4621 33.6868 30.5468 34.0645C30.6314 34.4421 30.7616 34.7773 30.9374 35.0703C31.1197 35.3568 31.3443 35.5814 31.6112 35.7441C31.8846 35.9004 32.2069 35.9785 32.578 35.9785C33.0923 35.9785 33.5122 35.8711 33.8378 35.6562C34.1633 35.4349 34.4074 35.1322 34.5702 34.748C34.733 34.3639 34.8274 33.9212 34.8534 33.4199V32.1406C34.8404 31.7305 34.785 31.3626 34.6874 31.0371C34.5897 30.7051 34.453 30.4219 34.2772 30.1875C34.1014 29.9531 33.8736 29.7708 33.5936 29.6406C33.3137 29.5104 32.9816 29.4453 32.5975 29.4453C32.2264 29.4453 31.9042 29.5299 31.6307 29.6992C31.3638 29.862 31.1392 30.0866 30.9569 30.373C30.7811 30.6595 30.6477 30.998 30.5565 31.3887C30.4654 31.7728 30.4198 32.1895 30.4198 32.6387Z" fill="white"/>
</svg>
