<?xml version="1.0" standalone="no"?>
<!DOCTYPE svg PUBLIC "-//W3C//DTD SVG 20010904//EN"
 "http://www.w3.org/TR/2001/REC-SVG-20010904/DTD/svg10.dtd">
<svg version="1.0" xmlns="http://www.w3.org/2000/svg"
 width="154.000000pt" height="154.000000pt" viewBox="0 0 154.000000 154.000000"
 preserveAspectRatio="xMidYMid meet">
<metadata>
Created by potrace 1.14, written by Peter Selinger 2001-2017
</metadata>
<g transform="translate(0.000000,154.000000) scale(0.100000,-0.100000)"
fill="#000000" stroke="none">
<path d="M214 1334 c-71 -75 -148 -158 -171 -183 l-43 -46 0 -336 0 -336 74
-79 c250 -265 273 -287 289 -281 32 12 17 42 -64 127 -44 47 -115 122 -157
168 l-77 83 -5 87 c-3 48 -3 113 -2 145 l4 57 216 -2 216 -3 11 -40 c21 -81
75 -150 145 -187 63 -33 176 -33 239 0 46 24 86 60 112 102 20 31 44 101 41
118 -2 9 47 12 218 12 169 0 220 -3 221 -12 0 -21 0 -200 -1 -238 0 -38 7 -28
-216 -265 -102 -107 -120 -139 -87 -152 11 -5 37 16 91 73 41 43 119 125 174
182 l98 103 0 337 0 337 -43 46 c-138 152 -302 319 -312 319 -7 0 -18 -6 -24
-14 -13 -16 8 -44 126 -166 166 -173 193 -205 193 -230 1 -31 1 -206 1 -238
l-1 -22 -217 2 -217 3 -12 48 c-39 154 -205 243 -356 191 -78 -26 -160 -122
-178 -209 l-6 -30 -216 -3 -217 -2 -3 32 c-2 18 -1 83 2 145 l5 111 44 49 c24
26 85 91 135 143 134 140 149 160 135 176 -6 8 -17 14 -24 14 -6 0 -70 -61
-141 -136z m649 -355 c164 -84 167 -326 5 -414 -60 -33 -129 -35 -186 -6 -57
29 -80 53 -108 116 -22 48 -26 67 -21 112 17 164 174 261 310 192z"/>
</g>
</svg>
