<svg width="125" height="125" viewBox="0 0 125 125" fill="none" xmlns="http://www.w3.org/2000/svg">
<path d="M62.179 14.0062C61.7551 14.1578 61.2913 14.5889 61.1233 14.98C60.9794 15.3152 60.9714 15.5627 60.9714 18.5799C60.9714 22.1878 60.9794 22.2198 61.4912 22.7466C62.019 23.2894 62.147 23.3053 65.6899 23.3053C68.313 23.3053 68.8808 23.2814 69.2007 23.1776C69.6806 23.026 70.2004 22.5071 70.3204 22.0681C70.3684 21.8925 70.4084 21.1182 70.4084 20.344C70.4084 19.2424 70.4323 18.9152 70.5203 18.8433C70.6003 18.7795 72.6796 18.7555 78.4538 18.7715L86.2833 18.7954L86.6591 19.0189C87.139 19.2983 87.4189 19.6415 87.6108 20.1923C87.7548 20.5994 87.7628 20.9267 87.7628 26.3784C87.7628 30.8564 87.7388 32.1655 87.6668 32.2692C87.5709 32.389 87.275 32.4049 84.6838 32.4209L81.8047 32.4289L80.821 31.9819C80.2772 31.7265 79.7973 31.5269 79.7494 31.5269C79.7094 31.5269 79.5734 31.479 79.4615 31.4152C79.2215 31.2954 78.8137 31.1517 78.4458 31.048C78.2219 30.9841 78.0219 30.9203 77.3661 30.6888C76.1425 30.2498 73.9592 29.7629 72.5277 29.6032C72.1358 29.5633 71.7519 29.4995 71.6879 29.4755C71.3521 29.3159 65.8018 29.1482 65.6659 29.2839C65.6099 29.3398 65.226 29.3717 64.7222 29.3717C64.2583 29.3717 63.6745 29.4117 63.4426 29.4516C63.2027 29.4995 62.7628 29.5713 62.4509 29.6112C61.3153 29.7629 60.2436 29.9704 59.3319 30.2099C58.6601 30.3855 57.2606 30.8165 57.1166 30.8963C57.0366 30.9362 56.8447 31.0001 56.6767 31.04C56.5088 31.0799 56.1729 31.1917 55.933 31.2874C55.6931 31.3832 55.4052 31.487 55.2932 31.5189C55.1812 31.5588 54.8853 31.6786 54.6454 31.7983C54.3975 31.91 54.1576 32.0058 54.1176 32.0058C54.0696 32.0058 53.9896 32.0617 53.9336 32.1256C53.8776 32.1894 53.7897 32.2453 53.7337 32.2453C53.6137 32.2453 52.1022 32.9717 51.7343 33.2111C51.6064 33.291 51.4144 33.3947 51.3105 33.4426C51.2145 33.4825 50.9266 33.6502 50.6707 33.8178C50.4227 33.9774 50.0869 34.185 49.9349 34.2648C49.7829 34.3526 49.599 34.4643 49.527 34.5282C49.4631 34.592 49.3751 34.6399 49.3431 34.6399C49.3111 34.6399 49.0072 34.8475 48.6713 35.1029C48.3354 35.3663 47.9275 35.6617 47.7596 35.7654C47.5996 35.8692 47.3037 36.1007 47.0958 36.2683L46.7279 36.5876L46.488 36.4439C46.36 36.3641 46.1601 36.2204 46.0401 36.1087C45.7602 35.8532 45.4004 35.8452 45.3284 36.1087C45.3044 36.2124 45.2964 36.404 45.3124 36.5237C45.3284 36.7073 45.3844 36.7632 45.5523 36.7791C45.6963 36.7951 45.7762 36.867 45.8082 37.0026C45.8722 37.2501 45.7842 37.4177 45.4004 37.7131C44.9525 38.0723 43.377 39.6048 43.377 39.6926C43.377 39.7405 43.257 39.8842 43.1211 40.0279C42.5133 40.6185 41.6735 41.6163 41.1057 42.4145C40.9778 42.5981 40.6259 43.077 40.322 43.4921C40.0261 43.8992 39.7782 44.2664 39.7782 44.2983C39.7782 44.3382 39.6342 44.5777 39.4663 44.8411C39.0184 45.5116 38.7465 45.9985 38.0267 47.4512C36.979 49.5745 36.7791 50.0454 36.3313 51.4822C36.2353 51.7696 36.1153 52.1208 36.0513 52.2645C35.9874 52.4081 35.9394 52.6237 35.9394 52.7434C35.9394 52.8711 35.8994 53.0068 35.8514 53.0547C35.8034 53.1026 35.7314 53.2862 35.6995 53.4538C35.6595 53.6214 35.5395 54.1323 35.4275 54.5952C35.1076 55.9682 34.9797 56.6147 34.9797 56.9101C34.9797 57.3571 34.8917 57.4209 34.4199 57.365L34.012 57.3171L34.036 57.6843C34.06 58.0435 34.068 58.0595 34.3799 58.1473L34.6998 58.2351L34.6758 59.4643C34.6678 60.1428 34.6198 60.8452 34.5718 61.0208C34.3879 61.7313 34.7478 66.5205 35.1076 68.0611C35.1716 68.3325 35.2196 68.6438 35.2196 68.7475C35.2196 68.8593 35.2756 69.1387 35.3476 69.3701C35.6115 70.2881 35.6995 70.6074 35.7474 70.8788C35.7794 71.0304 35.8274 71.206 35.8594 71.2779C35.8994 71.3417 35.9874 71.6131 36.0673 71.8765C36.1393 72.1399 36.2913 72.6029 36.3952 72.9142C36.5072 73.2175 36.6192 73.5767 36.6512 73.7124C36.6831 73.8401 36.8111 74.1514 36.9231 74.3989C37.043 74.6463 37.139 74.8698 37.139 74.8938C37.139 75.0055 38.2826 77.3842 38.6265 77.9988C38.7465 78.2143 38.8185 78.4059 38.7865 78.4378C38.7145 78.5097 29.9733 78.6534 29.8133 78.5895C29.7254 78.5576 29.7014 78.2064 29.7014 76.8654C29.7014 75.4525 29.6774 75.1412 29.5654 74.9257C29.3335 74.4707 29.1096 74.2153 28.7817 74.0477C28.4698 73.8721 28.3898 73.8721 24.9429 73.8721C21.6 73.8721 21.416 73.88 21.1841 74.0237C20.8882 74.2153 20.6083 74.5186 20.4403 74.8299C20.3204 75.0454 20.3044 75.4605 20.3044 78.5416C20.3044 81.8063 20.3124 82.0378 20.4563 82.2533C20.6963 82.6364 21.0002 82.9397 21.3201 83.0994C21.6 83.2431 21.8319 83.2511 24.9829 83.2511C28.2378 83.2511 28.3578 83.2431 28.6777 83.0834C29.0856 82.8759 29.3415 82.5965 29.5414 82.1495C29.6774 81.8382 29.7014 81.6147 29.7014 80.4493C29.7014 79.715 29.7334 79.0924 29.7734 79.0604C29.8133 79.0365 31.9487 78.9966 34.5158 78.9647L39.1863 78.9168L39.4183 79.3079C39.9781 80.2817 41.5696 82.5167 42.1134 83.0914C42.2094 83.2032 42.4013 83.4346 42.5373 83.6102C42.8092 83.9774 46.0721 87.2421 46.1681 87.2421C46.2081 87.2421 46.488 87.4496 46.7919 87.6971C48.0395 88.7188 49.3991 89.6767 50.6387 90.411C50.7986 90.5068 51.0146 90.6345 51.1105 90.6904C51.3345 90.8261 54.3895 92.3427 54.6934 92.4704C55.2772 92.7178 56.2369 93.0691 56.3169 93.0691C56.3648 93.0691 56.5008 93.117 56.6288 93.1808C57.3965 93.5719 60.4435 94.3542 61.6911 94.4899C61.979 94.5218 62.259 94.5777 62.3149 94.6176C62.3709 94.6495 62.7708 94.7134 63.1947 94.7533C63.6185 94.7852 64.1863 94.8491 64.4503 94.889C65.098 94.9928 69.8405 95.0007 70.4883 94.9049C70.7762 94.8571 71.3521 94.7932 71.7759 94.7533C72.1998 94.7214 72.5837 94.6655 72.6316 94.6336C72.6876 94.6016 72.9835 94.5458 73.3034 94.5058C73.6233 94.4659 74.2311 94.3542 74.647 94.2584C75.0629 94.1706 75.5507 94.0668 75.7267 94.0269C75.9026 93.995 76.1585 93.9311 76.2865 93.8832C76.4224 93.8353 77.0462 93.6358 77.686 93.4283C79.0856 92.9733 80.4291 92.4784 80.805 92.2549C80.869 92.223 80.981 92.1671 81.0449 92.1431C81.6368 91.9276 83.948 90.7463 84.1719 90.5467C84.2359 90.4829 84.3319 90.435 84.3719 90.435C84.4119 90.435 84.5878 90.3232 84.7558 90.1955C84.9317 90.0598 85.0996 89.956 85.1316 89.956C85.1956 89.956 86.1153 89.3414 86.4752 89.07C86.5792 88.9822 86.7151 88.9184 86.7791 88.9184C86.8431 88.9184 91.8815 93.8912 97.9675 99.9656C110.572 112.545 109.404 111.508 110.843 111.508C111.531 111.508 111.651 111.484 112.099 111.26C112.707 110.965 113.051 110.646 113.371 110.079C113.882 109.193 113.882 108.115 113.387 107.197C113.211 106.862 110.691 104.308 102.254 95.8867C94.4966 88.1361 91.3776 84.9672 91.4176 84.8874C91.4576 84.8315 91.8175 84.4085 92.2254 83.9455C93.1291 82.9238 93.8089 82.0537 94.6166 80.8644C95.7123 79.268 95.7922 79.1403 96.448 77.9429C97.1918 76.594 97.9275 74.9816 98.4394 73.5927C98.4954 73.441 98.5993 73.1617 98.6713 72.9701C99.0312 72.0202 99.0472 71.9723 99.3671 70.6393C99.4551 70.2641 99.567 69.8491 99.615 69.7214C99.663 69.5857 99.719 69.2823 99.751 69.0429C99.783 68.8034 99.8309 68.556 99.8709 68.5001C99.9349 68.3883 99.9989 68.0451 100.159 66.8079C100.207 66.4327 100.287 65.9299 100.335 65.6904C100.383 65.435 100.439 64.1099 100.463 62.5774C100.495 59.9034 100.439 58.9774 100.143 57.2692C100.103 57.0058 100.031 56.5748 99.9989 56.3114C99.9589 56.048 99.8949 55.7287 99.8469 55.609C99.799 55.4813 99.759 55.2897 99.759 55.17C99.759 55.0582 99.711 54.8187 99.647 54.6352C99.583 54.4595 99.4551 53.9886 99.3671 53.5975C99.1032 52.5119 98.9992 52.1367 98.7353 51.4423C98.5993 51.0911 98.4474 50.676 98.3994 50.5244C98.2874 50.221 98.1035 49.7661 97.9915 49.5505C97.8796 49.335 97.9036 49.2313 98.1195 48.7922L98.3194 48.3931L98.3034 40.9777L98.2794 33.5623L98.0555 33.2271C97.9355 33.0355 97.6876 32.7881 97.4957 32.6684L97.1598 32.4449L92.7292 32.4209C89.6582 32.4049 88.2586 32.373 88.1867 32.3171C88.0987 32.2453 88.0827 31.1198 88.0827 26.3465C88.0747 23.1138 88.0427 20.32 88.0107 20.1284C87.9227 19.6974 87.5149 19.0908 87.131 18.8353C86.3952 18.3325 86.9631 18.3644 78.3578 18.3644C71.2721 18.3564 70.5043 18.3404 70.4563 18.2287C70.4323 18.1569 70.4084 17.5103 70.4084 16.7919C70.4084 15.1316 70.3444 14.8682 69.8485 14.4212C69.6406 14.2297 69.3207 14.0301 69.1448 13.9822C68.6889 13.8465 62.5629 13.8625 62.179 14.0062ZM69.3447 14.6767C69.8805 15.0758 69.8885 15.1077 69.9045 18.4761C69.9285 21.8047 69.8965 22.0442 69.4647 22.4433C69.3447 22.547 69.0968 22.6827 68.9208 22.7306C68.449 22.8663 62.9067 22.8663 62.4669 22.7306C62.067 22.6109 61.6591 22.2357 61.5392 21.8765C61.4832 21.6929 61.4512 20.6074 61.4512 18.5719C61.4512 15.6984 61.4592 15.5148 61.6112 15.2035C61.7871 14.8363 62.107 14.5649 62.4829 14.4691C62.6188 14.4372 64.1623 14.4212 65.9058 14.4452L69.0888 14.4851L69.3447 14.6767ZM71.3281 30.4094C71.592 30.4573 72.0798 30.5212 72.4077 30.5611C72.7356 30.601 73.1115 30.6728 73.2314 30.7207C73.3594 30.7686 73.5593 30.8085 73.6873 30.8085C73.8073 30.8085 74.2631 30.9043 74.695 31.0161C75.1348 31.1358 75.6147 31.2555 75.7666 31.2874C75.9186 31.3274 76.1585 31.3912 76.2865 31.4311C76.4224 31.479 76.9023 31.6307 77.3661 31.7664C77.83 31.91 78.4538 32.1256 78.7577 32.2533C79.0616 32.381 79.3415 32.4848 79.3815 32.4848C79.4135 32.4848 79.6694 32.5885 79.9493 32.7162C80.2212 32.844 80.805 33.1153 81.2449 33.3229C81.6847 33.5224 82.1006 33.722 82.1646 33.7619C82.2286 33.8098 82.3725 33.8816 82.4765 33.9215C82.5805 33.9694 82.7804 34.0892 82.9163 34.185C83.1883 34.3845 83.4202 34.5282 83.6041 34.608C83.868 34.7357 84.9237 35.3903 85.3636 35.7016C85.6195 35.8851 86.0194 36.1645 86.2433 36.3162C86.7631 36.6754 87.5229 37.2661 88.0827 37.753C88.3226 37.9605 88.6265 38.2159 88.7465 38.3197C89.3223 38.8146 90.5459 40.0039 90.9938 40.5148C92.8332 42.63 92.6652 42.4305 93.0811 43.0212C93.249 43.2606 93.465 43.548 93.5609 43.6597C93.6569 43.7715 93.8808 44.0828 94.0488 44.3622C94.2167 44.6415 94.4247 44.9608 94.4966 45.0806C94.5766 45.2003 94.6646 45.344 94.6886 45.3998C94.7206 45.4557 94.8965 45.7431 95.0885 46.0304C95.2804 46.3258 95.4403 46.5892 95.4403 46.6291C95.4403 46.661 95.5523 46.8685 95.6803 47.092C95.8162 47.3155 95.9202 47.547 95.9202 47.6029C95.9202 47.6668 95.9762 47.7546 96.0401 47.8104C96.1041 47.8663 96.1601 47.9541 96.1601 48.018C96.1601 48.0738 96.2721 48.2814 96.4 48.473C96.536 48.6725 96.64 48.88 96.64 48.9359C96.64 48.9998 96.7439 49.2632 96.8719 49.5266C97.0878 49.9736 97.1918 50.221 97.4957 51.0432C97.5597 51.2188 97.6636 51.4822 97.7276 51.6259C97.7916 51.7696 97.8396 51.9452 97.8396 52.025C97.8396 52.0968 97.8956 52.2325 97.9595 52.3124C98.0235 52.4002 98.0795 52.5438 98.0795 52.6316C98.0795 52.7194 98.1275 52.935 98.1915 53.1185C98.4314 53.821 98.5114 54.0924 98.5753 54.3957C98.6073 54.5713 98.6873 54.9624 98.7433 55.2737C99.623 59.6639 99.759 63.2798 99.1591 66.5285C99.0952 66.8797 99.0392 67.2708 99.0392 67.3986C99.0392 67.5343 98.9912 67.8535 98.9272 68.117C98.8712 68.3883 98.7593 68.8912 98.6793 69.2424C98.4634 70.2641 97.9835 71.8765 97.5996 72.8743C97.5037 73.1138 97.3997 73.433 97.3597 73.5847C97.3197 73.7284 97.2558 73.888 97.2078 73.9359C97.1598 73.9838 97.1198 74.0716 97.1198 74.1355C97.1198 74.4867 95.4643 77.6955 94.5366 79.1323C94.1687 79.707 93.281 81.0161 93.1771 81.1438C93.1051 81.2236 92.9611 81.4072 92.8652 81.5429C92.4733 82.0777 91.2417 83.5224 90.8338 83.9215C89.4503 85.2705 88.6025 86.0687 88.2826 86.3242C88.0667 86.4998 87.6668 86.8191 87.4029 87.0426C87.139 87.2661 86.7951 87.5295 86.6432 87.6332C86.4912 87.745 86.3313 87.8727 86.2993 87.9366C86.2673 87.9924 86.2033 88.0403 86.1553 88.0403C86.1153 88.0403 85.8194 88.2319 85.4995 88.4714C84.3879 89.2935 82.8044 90.1955 81.005 91.0336C79.5334 91.7121 79.3255 91.7999 78.4458 92.1032C78.0539 92.2389 77.622 92.3906 77.4861 92.4385C77.3581 92.4864 77.1102 92.5582 76.9423 92.5981C76.7743 92.638 76.5824 92.7019 76.5024 92.7418C76.3345 92.8296 75.7666 92.9733 75.2548 93.0691C75.0389 93.109 74.8229 93.1808 74.775 93.2287C74.735 93.2686 74.583 93.3085 74.4471 93.3085C74.3191 93.3085 73.9752 93.3564 73.6873 93.4203C71.9199 93.8194 70.1044 93.987 67.5693 93.987C65.25 93.987 64.2183 93.9072 61.9711 93.548C60.9634 93.3883 59.4199 93.0212 58.5322 92.7418C58.4042 92.6939 58.0603 92.5821 57.7724 92.4943C56.7487 92.1671 55.6531 91.768 55.5731 91.7041C55.5331 91.6642 55.4451 91.6323 55.3812 91.6323C55.2292 91.6323 51.9742 90.0279 51.5184 89.7325C51.3345 89.6048 51.0465 89.4292 50.8946 89.3494C50.7426 89.2696 50.3908 89.0461 50.1108 88.8545C49.8309 88.6709 49.575 88.5193 49.543 88.5193C49.503 88.5193 49.4311 88.4634 49.3751 88.3995C49.3191 88.3357 48.9912 88.0802 48.6393 87.8328C47.6156 87.1224 45.1044 84.9433 44.5446 84.2967C44.4487 84.185 44.1288 83.8258 43.8169 83.4905C42.8652 82.4608 41.8335 81.1438 40.9458 79.8187C40.8178 79.6192 40.6819 79.4436 40.6499 79.4196C40.6179 79.3957 40.5459 79.2839 40.4979 79.1802C40.4579 79.0684 40.346 78.8689 40.258 78.7412C39.7302 77.935 38.0987 74.7421 38.0987 74.5266C38.0987 74.4947 37.9947 74.2472 37.8748 73.9758C37.7468 73.6965 37.6028 73.3452 37.5549 73.1936C37.219 72.2437 36.8991 71.2459 36.7871 70.7989C36.7071 70.5116 36.6032 70.0965 36.5392 69.881C36.4432 69.4899 36.3153 68.9471 36.0593 67.8056C35.9954 67.4943 35.9394 67.1352 35.9394 67.0074C35.9394 66.8717 35.8994 66.6403 35.8514 66.4886C35.5155 65.3951 35.5155 59.0732 35.8514 57.828C35.8994 57.6524 35.9394 57.3411 35.9394 57.1336C35.9394 56.926 35.9794 56.6626 36.0274 56.5349C36.0753 56.4152 36.1473 56.1278 36.1873 55.9123C36.2993 55.2657 36.4992 54.4276 36.5792 54.268C36.6272 54.1882 36.6591 54.0445 36.6591 53.9407C36.6591 53.8369 36.7151 53.5975 36.7791 53.3979C36.8431 53.1984 37.011 52.6636 37.147 52.2006C37.4429 51.2268 37.4349 51.2428 37.5309 51.0831C37.5709 51.0192 37.6668 50.8037 37.7388 50.6042C37.9067 50.1652 38.0827 49.7581 38.2266 49.4707C38.2906 49.359 38.3386 49.2233 38.3386 49.1674C38.3386 49.0556 39.2823 47.108 39.4263 46.9324C39.4742 46.8685 39.6582 46.5572 39.8181 46.2539C40.322 45.328 41.8815 43.0451 42.7132 42.0234C43.417 41.1693 46.0641 38.4235 46.576 38.0244C46.6879 37.9445 46.9918 37.6891 47.2558 37.4656C47.8636 36.9468 49.543 35.7095 50.0549 35.3982C52.0462 34.185 53.0619 33.6342 54.2935 33.0834C54.4295 33.0275 54.7494 32.8839 55.0133 32.7641C55.2772 32.6444 55.6051 32.5007 55.733 32.4369C56.0449 32.3012 56.6288 32.0936 56.9327 32.0138C57.0686 31.9739 57.2606 31.91 57.3725 31.8701C57.4845 31.8223 57.7884 31.7265 58.0523 31.6546C58.3162 31.5748 58.6921 31.471 58.892 31.4072C60.1876 31.032 60.6275 30.9283 61.3792 30.8085C61.6272 30.7686 61.9231 30.6968 62.043 30.6489C62.163 30.609 62.4109 30.5691 62.5949 30.5691C62.7788 30.5691 63.0667 30.5291 63.2267 30.4892C63.7945 30.3296 65.5779 30.2657 68.2091 30.2977C69.6646 30.3136 71.0641 30.3695 71.3281 30.4094ZM28.6457 74.5984C29.2055 75.0295 29.2215 75.1013 29.2215 78.5256C29.2215 81.4152 29.2135 81.5988 29.0616 81.934C28.9736 82.1256 28.7657 82.389 28.6057 82.5087L28.3178 82.7322L25.0948 82.7562C22.0158 82.7801 21.8559 82.7721 21.56 82.6205C21.392 82.5327 21.1521 82.3411 21.0401 82.1814L20.8242 81.9021V78.5735C20.8242 75.3088 20.8242 75.245 20.9922 74.9736C21.36 74.3749 21.2641 74.3909 25.0149 74.3909H28.3658L28.6457 74.5984Z" fill="#56E3D3"/>
<path d="M64.8101 34.5282C64.2183 34.592 63.3866 34.7038 62.9707 34.7676C62.2669 34.8874 62.003 34.9512 61.0513 35.1987C60.8514 35.2466 60.5475 35.3184 60.3715 35.3583C60.1956 35.3902 59.9477 35.4621 59.8117 35.502C59.6837 35.5499 59.2119 35.7015 58.772 35.8372C58.0203 36.0687 57.6604 36.1964 57.0926 36.4279C56.7647 36.5636 54.2695 37.8088 53.9736 37.9924C53.8456 38.0722 53.4857 38.2638 53.1898 38.4234C52.718 38.6789 52.3501 38.9183 51.3344 39.6208C49.9429 40.5866 48.0315 42.3187 46.9118 43.6198C46.528 44.0588 46.1761 44.4499 46.1281 44.4978C45.8882 44.7134 43.8568 47.563 43.8568 47.6907C43.8568 47.7066 43.6809 48.01 43.4569 48.3692C43.0331 49.0716 42.1774 50.7798 42.1774 50.9234C42.1774 50.9793 42.1214 51.123 42.0574 51.2507C41.9934 51.3784 41.8814 51.586 41.8175 51.7137C41.7535 51.8414 41.6975 52.001 41.6975 52.0649C41.6975 52.1367 41.6495 52.2884 41.5855 52.4161C41.4816 52.6236 41.4016 52.8152 41.1377 53.5575C41.0897 53.7092 41.0097 53.9886 40.9697 54.1801C40.9297 54.3637 40.8658 54.5872 40.8178 54.6671C40.7778 54.7549 40.7378 54.9065 40.7378 55.0023C40.7378 55.0901 40.6898 55.3376 40.6258 55.5451C40.3779 56.3273 40.13 57.6683 39.8901 59.5042C39.7861 60.3344 39.7701 60.957 39.8021 62.5773C39.8261 63.6948 39.8821 64.8443 39.9221 65.1316C39.9701 65.419 40.05 65.8979 40.098 66.2092C40.146 66.5125 40.234 67.0393 40.298 67.3666C40.3699 67.6939 40.4579 68.1329 40.4979 68.3404C40.5379 68.548 40.6019 68.7874 40.6498 68.8752C40.6978 68.963 40.7378 69.1147 40.7378 69.2105C40.7378 69.2983 40.7858 69.5457 40.8498 69.7533C41.3456 71.3257 41.4816 71.7488 41.5775 71.9563C41.6335 72.084 41.8015 72.4831 41.9374 72.8344C42.1933 73.4649 42.5772 74.319 42.7772 74.7102C43.0171 75.1891 43.401 75.8755 43.4889 75.9873C43.5369 76.0512 43.6649 76.2667 43.7688 76.4662C43.8728 76.6658 44.0408 76.9372 44.1447 77.0808C44.2487 77.2165 44.3367 77.4001 44.3367 77.48C44.3367 77.5598 44.4966 77.7833 44.6965 77.9748C44.8965 78.1664 45.0564 78.358 45.0564 78.3979C45.0564 78.4458 45.1924 78.6453 45.3603 78.8529C45.5363 79.0524 45.7042 79.2759 45.7442 79.3478C45.7842 79.4196 46.0321 79.7229 46.296 80.0262C46.5599 80.3216 46.9598 80.7766 47.1917 81.04C47.6956 81.6067 49.0711 82.8998 49.7829 83.4665C50.0628 83.69 50.4947 84.0333 50.7346 84.2248C51.1345 84.5441 52.3741 85.3743 53.4138 86.0288C54.0136 86.404 56.2848 87.5055 57.0526 87.8008C57.4285 87.9445 57.8443 88.1042 57.9723 88.16C58.4841 88.3676 58.78 88.4633 59.052 88.5033C59.2039 88.5192 59.4038 88.5911 59.4918 88.6469C59.5798 88.7108 59.7157 88.7587 59.7957 88.7587C59.8837 88.7587 60.1156 88.8066 60.3235 88.8704C61.1073 89.1179 61.5951 89.2376 61.7951 89.2376C61.907 89.2376 62.099 89.2775 62.2189 89.3174C62.3389 89.3653 62.9947 89.4771 63.6825 89.5729C64.7301 89.7165 65.3379 89.7405 67.4893 89.7485C70.6003 89.7565 71.8958 89.6128 74.1671 89.0221C74.583 88.9103 75.0388 88.7906 75.1668 88.7587C75.3028 88.7268 75.4867 88.6629 75.5827 88.615C75.6786 88.5591 75.8306 88.5192 75.9186 88.5192C76.0145 88.5192 76.1505 88.4873 76.2305 88.4394C76.3024 88.3995 76.6383 88.2718 76.9662 88.16C77.8699 87.8727 78.1658 87.7529 78.6057 87.5374C78.8296 87.4257 79.4934 87.0984 80.0852 86.8031C81.3008 86.2044 81.2369 86.2363 82.1646 85.6457C82.5404 85.4062 82.8763 85.1907 82.9163 85.1747C83.0203 85.1348 84.1559 84.3047 84.8037 83.8018C85.2836 83.4346 86.5791 82.2692 87.155 81.6865C87.6828 81.1677 88.9224 79.8027 88.9944 79.675C89.0344 79.6032 89.2343 79.3398 89.4422 79.1003C89.8421 78.6453 91.1937 76.6658 91.4976 76.107C91.5855 75.9314 91.7775 75.5882 91.9134 75.3487C92.1933 74.8379 92.7852 73.6645 92.9291 73.3133C92.9771 73.1776 93.0811 72.9461 93.145 72.7944C93.321 72.3953 93.417 72.116 94.1207 70.0805C94.3527 69.418 94.5206 68.6996 94.8325 67.1271C95.0884 65.8021 95.1524 64.9321 95.1764 62.266C95.2004 60.047 95.1844 59.4005 95.0804 58.8736C95.0164 58.5065 94.9605 58.0914 94.9605 57.9397C94.9605 57.7881 94.9045 57.4129 94.8405 57.1096C94.7685 56.7983 94.6646 56.2794 94.5926 55.9522C94.4086 55.0422 93.8248 53.1505 93.4569 52.2245C92.7372 50.4525 91.9934 48.88 91.5775 48.2335C91.4576 48.0419 91.3616 47.8743 91.3616 47.8423C91.3616 47.8184 91.2576 47.6588 91.1217 47.4911C90.9937 47.3235 90.8818 47.1639 90.8818 47.1319C90.8818 47.1 90.7778 46.9404 90.6418 46.7727C90.5139 46.6051 90.4019 46.4455 90.4019 46.4215C90.4019 46.3736 89.6262 45.2721 89.4902 45.1284C89.4422 45.0805 89.2023 44.7932 88.9624 44.4899C87.9307 43.2127 85.7234 41.0256 84.8757 40.4509C84.7237 40.3471 84.2999 40.0358 83.924 39.7485C83.2202 39.2137 83.0123 39.07 82.8044 38.9742C82.7404 38.9503 82.5564 38.8225 82.3965 38.6948C82.2365 38.5751 82.0766 38.4713 82.0446 38.4713C82.0126 38.4713 81.7647 38.3356 81.5008 38.176C80.4531 37.5374 77.75 36.3002 76.7263 35.9809C76.4384 35.8931 76.0625 35.7734 75.8866 35.7175C75.7106 35.6616 75.3507 35.5579 75.0868 35.478C74.8229 35.4062 74.479 35.3024 74.3271 35.2545C74.1751 35.2066 73.9032 35.1428 73.7273 35.1188C73.5513 35.0869 73.2474 35.0231 73.0475 34.9752C72.3757 34.8075 71.408 34.6479 70.5283 34.5521C69.1447 34.4084 66.0657 34.3925 64.8101 34.5282ZM70.0484 35.518C70.5763 35.5658 71.2321 35.6616 71.504 35.7255C71.7759 35.7893 72.0958 35.8372 72.2077 35.8372C72.3277 35.8372 72.5836 35.8851 72.7916 35.949C72.9995 36.0128 73.3674 36.1006 73.6073 36.1485C74.6869 36.38 75.1348 36.4998 75.9665 36.7951C76.2305 36.8909 76.5663 36.9946 76.7183 37.0346C76.8623 37.0745 77.0222 37.1383 77.0702 37.1862C77.1182 37.2341 77.2061 37.274 77.2621 37.274C77.4461 37.274 80.3651 38.6709 80.685 38.9183C80.837 39.0301 80.845 39.1578 80.885 43.6837L80.925 48.3293L81.1169 48.7124C81.3408 49.1674 81.5248 49.3589 81.9646 49.5904C82.2285 49.7261 82.4605 49.766 83.3482 49.79C84.3479 49.8219 84.4038 49.8299 84.4438 49.9975C84.4678 50.0853 84.4758 53.1105 84.4678 56.7105L84.4438 63.2558L84.1479 63.7747C83.7161 64.5409 83.3562 64.8363 82.5005 65.1316C82.0526 65.2833 81.8687 65.2913 78.0779 65.2753L74.1271 65.2513L74.0711 64.4531C74.0472 64.0141 73.9832 63.5512 73.9352 63.4314C73.8872 63.3037 73.8472 63.0962 73.8472 62.9525C73.8472 62.8168 73.7992 62.5614 73.7353 62.3778C73.6713 62.2022 73.5433 61.8111 73.4553 61.5077C72.9915 60.0151 71.9918 58.4187 70.6882 57.0856C69.9525 56.3273 68.9288 55.4732 68.7528 55.4732C68.7289 55.4732 68.5769 55.3695 68.417 55.2497C68.257 55.122 67.9691 54.9384 67.7692 54.8427C67.5692 54.7469 67.3533 54.6351 67.2893 54.6032C66.8894 54.3877 66.6255 54.2839 66.0897 54.1163C65.7618 54.0125 65.4579 53.9008 65.4099 53.8609C65.3699 53.8289 65.218 53.797 65.082 53.797C64.9381 53.797 64.7221 53.7571 64.5942 53.7092C64.1543 53.5256 61.4032 53.334 61.1553 53.4618C60.9314 53.5895 60.7874 53.4538 60.7394 53.0626L60.6914 52.7194L60.2596 52.6955C59.7557 52.6635 59.6917 52.7274 59.6917 53.2143C59.6917 53.5815 59.4918 53.797 59.1479 53.797C58.948 53.797 58.3322 53.9806 57.8763 54.1722C57.7404 54.228 57.5804 54.2759 57.5164 54.2759C57.4605 54.2759 57.3405 54.3318 57.2605 54.3957C57.1726 54.4595 57.0526 54.5154 56.9966 54.5154C56.8367 54.5154 55.3171 55.4493 54.6534 55.9522C53.9256 56.5109 52.8299 57.6284 52.2781 58.3867C51.8782 58.9375 50.9825 60.5738 50.7826 61.1326C50.1668 62.8328 50.0548 63.5192 50.0628 65.5307C50.0628 67.183 50.1348 67.7817 50.4627 68.8114C50.5187 69.0189 50.5747 69.2264 50.5747 69.2743C50.5747 69.3222 50.6786 69.5856 50.8066 69.857C51.0945 70.4876 51.2305 70.8947 51.1665 70.9506C51.1425 70.9745 50.0148 71.0144 48.6713 71.0384C46.304 71.0783 46.2001 71.0863 45.8402 71.2619C45.4083 71.4774 44.8725 72.0042 44.5846 72.4911C44.3926 72.8024 44.3766 72.9381 44.3367 73.9439C44.3047 74.7341 44.2647 75.0694 44.2007 75.0933C44.1367 75.1093 44.0967 75.0534 44.0967 74.9576C44.0967 74.8698 44.0647 74.782 44.0248 74.758C43.9208 74.6942 43.0731 72.9301 42.7932 72.1958C42.7212 72.0202 42.5772 71.645 42.4653 71.3577C42.3613 71.0703 42.1933 70.5834 42.0974 70.2801C42.0014 69.9688 41.8734 69.6016 41.8095 69.4579C41.7455 69.3142 41.6975 69.1147 41.6975 69.0109C41.6975 68.9072 41.6415 68.6677 41.5775 68.4841C41.5136 68.3005 41.4576 67.9892 41.4576 67.8056C41.4576 67.5263 41.4896 67.4544 41.6255 67.4225C41.7695 67.3826 41.7855 67.3267 41.7615 66.9515C41.7375 66.5524 41.7215 66.5285 41.5136 66.5045C41.2017 66.4646 41.0737 66.1374 40.9777 65.1476C40.9377 64.7245 40.8658 64.0301 40.8178 63.615C40.7218 62.6492 40.7218 61.6195 40.8258 60.6616C40.8658 60.2466 40.9377 59.5761 40.9777 59.1849C41.0817 58.0914 41.2896 56.8701 41.5536 55.8324C41.5935 55.6568 41.6575 55.3695 41.6975 55.1939C41.8335 54.5713 42.0974 53.789 42.6572 52.3602C42.7532 52.1208 42.8491 51.8494 42.8811 51.7616C42.9611 51.4742 44.3926 48.6884 44.5926 48.425C44.7045 48.2893 44.8085 48.1058 44.8405 48.0259C44.8885 47.8902 45.5203 46.9643 46.1281 46.1342C47.0478 44.873 48.6393 43.1648 49.9349 42.0393C50.8866 41.2172 52.686 39.8682 53.2138 39.5808C53.4138 39.4691 53.7257 39.2855 53.9096 39.1658C54.1015 39.046 54.2695 38.9503 54.2855 38.9503C54.3095 38.9503 54.6614 38.7507 55.0692 38.5112C55.4771 38.2638 55.9489 38.0323 56.1089 37.9844C56.2688 37.9445 56.4288 37.8727 56.4528 37.8328C56.4768 37.7849 56.7327 37.7529 57.0126 37.7529C57.4925 37.7529 57.5324 37.737 57.6604 37.5215C57.7884 37.298 58.0283 37.1702 58.7321 36.9148C59.7397 36.5556 60.2276 36.4199 61.4112 36.1565C61.6351 36.1086 62.027 36.0128 62.2909 35.957C62.5548 35.8931 62.9707 35.8213 63.2106 35.7893C63.4505 35.7654 63.6905 35.7095 63.7305 35.6776C63.7784 35.6457 64.2343 35.5978 64.7541 35.5658C65.274 35.5339 65.7778 35.478 65.8738 35.4381C66.1057 35.3423 68.8248 35.3902 70.0484 35.518ZM91.4096 50.1332C91.5136 50.3008 91.6015 50.4605 91.6015 50.4844C91.6015 50.5084 91.7615 50.8596 91.9614 51.2667C92.1614 51.6817 92.3213 52.0649 92.3213 52.1287C92.3213 52.1926 92.3533 52.2804 92.3933 52.3203C92.4333 52.3682 92.5932 52.7913 92.7532 53.2782C92.9131 53.7571 93.0811 54.26 93.129 54.3957C93.361 55.0502 93.6649 56.2236 93.7608 56.8302C93.8008 57.0697 93.8648 57.4289 93.9128 57.6284C93.9528 57.828 94.0408 58.3628 94.0967 58.8257C94.2327 59.9273 94.2407 64.5569 94.1047 65.3312C94.0008 65.9298 93.8728 66.744 93.7688 67.4464C93.7369 67.6859 93.6649 67.9892 93.6169 68.1089C93.5609 68.2367 93.5209 68.4202 93.5209 68.524C93.5209 68.6358 93.4729 68.8353 93.409 68.979C93.345 69.1227 93.241 69.442 93.169 69.6814C92.7212 71.19 92.0414 72.9461 91.5056 73.9439C91.4576 74.0317 91.2976 74.351 91.1377 74.6623C90.9857 74.9736 90.7618 75.3727 90.6498 75.5483C90.3699 75.9873 90.258 76.1709 90.194 76.3066C90.114 76.4662 89.1223 77.903 89.0424 77.9828C89.0184 78.0068 88.8024 78.2702 88.5625 78.5815C88.0587 79.236 87.9227 79.3797 86.7791 80.6329C86.2992 81.1517 85.8834 81.5748 85.8514 81.5748C85.8274 81.5748 85.5635 81.7903 85.2836 82.0617C84.7797 82.5326 82.6204 84.2089 82.5164 84.2089C82.4925 84.2089 82.3325 84.3126 82.1726 84.4324C82.0126 84.5601 81.8287 84.6878 81.7647 84.7118C81.7007 84.7437 81.5727 84.8155 81.4848 84.8634C80.2692 85.6377 79.6454 85.957 77.734 86.8031C77.1822 87.0505 76.7023 87.2261 76.3664 87.3139C76.2385 87.3538 76.0385 87.4177 75.9266 87.4656C75.8146 87.5055 75.5107 87.6093 75.2468 87.6811C74.9829 87.7529 74.647 87.8487 74.495 87.8966C74.3431 87.9445 73.9832 88.0323 73.6953 88.0962C73.4074 88.16 72.9355 88.2638 72.6476 88.3277C72.3597 88.3995 71.8479 88.4793 71.496 88.5192C71.1521 88.5671 70.7362 88.631 70.5763 88.6789C70.2004 88.7826 64.7541 88.7826 64.4422 88.6789C64.3143 88.639 63.9224 88.5671 63.5705 88.5192C62.6748 88.4075 61.7791 88.2159 60.6754 87.9126C59.5318 87.6013 59.3159 87.5374 59.0679 87.4337C58.924 87.3698 58.756 87.3219 58.6921 87.3219C58.5801 87.3219 58.1642 87.1623 57.7484 86.9547C57.6204 86.8909 57.4925 86.843 57.4525 86.843C57.3005 86.843 54.9493 85.7095 54.4534 85.3982C54.2775 85.2865 54.0775 85.1747 54.0136 85.1428C53.8776 85.0789 53.7976 85.031 53.0699 84.5441C52.79 84.3605 52.55 84.2089 52.526 84.2089C52.4381 84.2089 50.8066 82.9397 50.0148 82.2533C48.4154 80.8724 46.8559 79.1402 45.6482 77.3921C44.6326 75.9234 44.6566 75.9953 44.6566 74.5904C44.6566 73.872 44.6965 73.2654 44.7525 73.1058C44.9045 72.6508 45.3363 72.084 45.7202 71.8366C46.352 71.4135 46.7439 71.3577 49.1671 71.3577C51.2544 71.3577 51.3584 71.3657 51.5663 71.5253C51.6783 71.6131 51.7743 71.7169 51.7743 71.7568C51.7743 71.8446 52.2301 72.539 52.4061 72.7306C52.4781 72.8024 52.734 73.1058 52.9739 73.4011C53.2138 73.6964 53.4697 73.9838 53.5337 74.0397C54.4854 74.8858 55.3811 75.5882 55.5091 75.5882C55.5571 75.5882 55.629 75.6361 55.677 75.692C55.821 75.8596 57.4525 76.6418 58.1722 76.8893C59.6118 77.3762 60.8114 77.5358 62.4669 77.48C63.1626 77.456 63.9464 77.3921 64.2103 77.3443C64.9141 77.2006 65.8818 76.9372 65.9617 76.8573C66.0097 76.8174 66.1137 76.7855 66.1937 76.7855C66.2736 76.7855 66.4416 76.7376 66.5536 76.6738C66.6735 76.6179 67.1294 76.3944 67.5612 76.1789C68.257 75.8356 68.8328 75.4685 69.6486 74.8538C70.2164 74.4228 71.5599 72.9621 71.9518 72.3634C72.5516 71.4295 72.5436 71.4455 72.8235 70.9187C73.1035 70.3918 73.1754 70.2162 73.4393 69.442C73.8152 68.3245 73.8472 68.1967 73.8472 67.9892C73.8472 67.8695 73.9032 67.5662 73.9672 67.3107C74.0312 67.0633 74.0871 66.6163 74.0871 66.3209C74.0871 65.9857 74.1271 65.7622 74.1911 65.7063C74.2631 65.6425 75.6386 65.6105 78.4937 65.5946C82.6524 65.5706 82.6844 65.5706 83.0523 65.395C83.6441 65.1077 84.1879 64.5649 84.5318 63.9183L84.8437 63.3356L84.8837 56.5907L84.9237 49.8459L87.9227 49.8059C89.5702 49.782 90.9857 49.782 91.0657 49.798C91.1457 49.8139 91.2976 49.9656 91.4096 50.1332ZM63.8344 56.1118C64.2663 56.1996 64.7861 56.3273 65.002 56.3912C65.4179 56.5189 66.6495 57.0936 66.9694 57.3171C67.0814 57.389 67.3693 57.5805 67.6092 57.7322C68.305 58.1872 69.4166 59.3366 69.9685 60.1827C70.2404 60.5978 70.4883 60.9969 70.5123 61.0607C70.5443 61.1246 70.6003 61.2363 70.6322 61.3002C71.2001 62.29 71.5999 64.0141 71.6079 65.4589C71.6079 66.4566 71.368 67.8535 71.0801 68.548C71.0161 68.6916 70.9681 68.8513 70.9681 68.9072C70.9681 69.0349 70.4643 69.9927 70.0084 70.7351C69.6646 71.2938 67.8571 73.1936 67.6732 73.1936C67.6252 73.1936 67.4573 73.2973 67.2973 73.425C66.7935 73.8162 65.4659 74.4148 64.4902 74.6782C63.5065 74.9496 61.7791 75.1172 61.2912 74.9975C61.1793 74.9656 60.8434 74.9097 60.5315 74.8698C58.5721 74.6064 56.3968 73.4171 54.9893 71.8526C54.2775 71.0623 53.9416 70.5595 53.5337 69.6974C53.3498 69.3142 53.1498 68.8992 53.0859 68.7794C53.0219 68.6517 52.9739 68.4921 52.9739 68.4202C52.9739 68.3484 52.9179 68.1808 52.8539 68.0531C52.71 67.7817 52.694 67.2788 52.8299 67.1431C52.8859 67.0872 53.0619 67.0473 53.2298 67.0473C53.5817 67.0473 53.6857 66.9036 53.6217 66.4886C53.5737 66.2172 53.5657 66.2092 53.1338 66.1693C52.8939 66.1453 52.646 66.0975 52.598 66.0655C52.4701 65.9857 52.4541 64.3653 52.574 64.054C52.614 63.9423 52.686 63.6629 52.726 63.4314C52.8219 62.8647 53.1179 62.0585 53.5417 61.1805C53.9976 60.2466 54.3814 59.7357 55.3171 58.7778C56.0129 58.0754 56.4368 57.7242 57.0926 57.3331C57.5084 57.0777 58.892 56.4311 59.012 56.4311C59.0839 56.4311 59.2119 56.3912 59.2999 56.3433C59.3878 56.3034 59.6678 56.2236 59.9157 56.1757C60.1636 56.1358 60.4995 56.0719 60.6514 56.032C61.2353 55.9043 63.0347 55.9442 63.8344 56.1118Z" fill="#56E3D3"/>
<path d="M58.4282 37.8488C58.1482 38.1601 58.1322 38.4075 58.3962 38.655L58.6201 38.8705L58.996 38.631C59.2039 38.5033 59.3718 38.3357 59.3718 38.2638C59.3718 38.0882 58.94 37.6732 58.756 37.6732C58.6681 37.6732 58.5241 37.753 58.4282 37.8488Z" fill="#56E3D3"/>
<path d="M59.4358 39.3255C59.1799 39.4851 59.1559 39.6687 59.3478 39.996C59.4678 40.2035 59.5158 40.2195 59.7717 40.1796C59.9237 40.1556 60.1236 40.0678 60.2036 39.988C60.3475 39.8523 60.3475 39.8204 60.2356 39.533C60.1316 39.2936 60.0676 39.2297 59.8837 39.2137C59.7557 39.1978 59.5558 39.2537 59.4358 39.3255Z" fill="#56E3D3"/>
<path d="M60.0516 40.9777C59.7397 41.0655 59.7318 41.0815 59.7318 41.4247V41.7839H60.2116H60.6914L60.7154 41.4886C60.7394 41.1613 60.6195 40.866 60.4675 40.874C60.4115 40.874 60.2276 40.9219 60.0516 40.9777Z" fill="#56E3D3"/>
<path d="M59.9317 42.8376C59.7478 42.9094 59.6918 43.0292 59.6918 43.3484C59.6918 43.7316 59.8357 43.8353 60.3076 43.8034L60.6915 43.7795L60.7154 43.3963C60.7314 43.1808 60.6995 42.9573 60.6435 42.8935C60.5555 42.7817 60.1636 42.7498 59.9317 42.8376Z" fill="#56E3D3"/>
<path d="M59.7398 44.9768C59.6678 45.1604 59.6838 45.5196 59.7637 45.6393C59.8037 45.7112 59.9637 45.7351 60.2596 45.7191L60.6914 45.6952V45.2961V44.897L60.2436 44.873C59.8837 44.8571 59.7797 44.873 59.7398 44.9768Z" fill="#56E3D3"/>
<path d="M59.7398 46.8925C59.6678 47.0841 59.6838 47.5151 59.7637 47.6428C59.8037 47.6987 59.9877 47.7625 60.1876 47.7865C60.6355 47.8424 60.7474 47.7146 60.7154 47.1958L60.6914 46.8127L60.2436 46.7887C59.8837 46.7728 59.7797 46.7887 59.7398 46.8925Z" fill="#56E3D3"/>
<path d="M59.7237 48.8721C59.6997 48.936 59.6917 49.1435 59.7077 49.3351L59.7317 49.6863H60.2116H60.6914V49.2473V48.8082L60.2276 48.7843C59.8837 48.7683 59.7557 48.7923 59.7237 48.8721Z" fill="#56E3D3"/>
<path d="M59.7797 50.7957C59.7237 50.8596 59.6917 51.0671 59.7077 51.2587L59.7317 51.6019H60.2116H60.6914V51.1629V50.7239L60.2835 50.6999C60.0036 50.684 59.8517 50.7159 59.7797 50.7957Z" fill="#56E3D3"/>
<path d="M47.1358 66.3209L46.7759 66.3688L46.7519 66.752C46.7279 67.0952 46.7439 67.1351 46.9438 67.207C47.0558 67.2548 47.2797 67.2708 47.4317 67.2389L47.7036 67.191L47.6796 66.744C47.6636 66.5045 47.6236 66.297 47.5756 66.289C47.5357 66.281 47.3357 66.297 47.1358 66.3209Z" fill="#56E3D3"/>
<path d="M48.6873 66.4407C48.6633 66.5445 48.6553 66.7441 48.6713 66.8957L48.6953 67.1671H49.1351H49.575L49.599 66.7042L49.623 66.2492H49.1831C48.7832 66.2492 48.7353 66.2651 48.6873 66.4407Z" fill="#56E3D3"/>
<path d="M44.8485 66.4406C44.8245 66.4965 44.8165 66.72 44.8325 66.9355L44.8565 67.3267H45.2964H45.7363L45.7602 67.0154C45.7762 66.8398 45.7682 66.6163 45.7442 66.5125C45.6963 66.3528 45.6483 66.3289 45.2884 66.3289C45.0245 66.3289 44.8805 66.3688 44.8485 66.4406Z" fill="#56E3D3"/>
<path d="M42.8331 66.5046C42.7292 66.6084 42.8012 67.2948 42.9291 67.3826C43.0331 67.4545 43.4729 67.4625 43.6489 67.3986C43.7449 67.3587 43.7768 67.239 43.7768 66.9277C43.7768 66.6163 43.7449 66.4966 43.6489 66.4567C43.441 66.3769 42.9371 66.4008 42.8331 66.5046Z" fill="#56E3D3"/>
<path d="M59.7477 56.7184C59.6518 56.8142 59.6838 57.4288 59.7877 57.5326C59.8997 57.6444 60.4755 57.6603 60.6355 57.5566C60.7074 57.5167 60.7314 57.357 60.7154 57.1016L60.6914 56.7105L60.2516 56.6865C60.0037 56.6705 59.7797 56.6865 59.7477 56.7184Z" fill="#56E3D3"/>
<path d="M59.7477 58.6342C59.6678 58.7141 59.6758 59.3207 59.7637 59.4484C59.8037 59.5202 59.9637 59.5442 60.2596 59.5282L60.6914 59.5043V59.0653V58.6263L60.2516 58.6023C60.0037 58.5863 59.7797 58.6023 59.7477 58.6342Z" fill="#56E3D3"/>
<path d="M59.7237 60.6057C59.6997 60.6696 59.6917 60.8771 59.7077 61.0687L59.7317 61.4199H60.2116H60.6914V60.9809V60.5419L60.2276 60.5179C59.8837 60.502 59.7557 60.5259 59.7237 60.6057Z" fill="#56E3D3"/>
<path d="M59.7318 62.6811C59.6998 62.7929 59.6918 62.9844 59.7078 63.1042C59.7318 63.3117 59.7717 63.3436 60.0996 63.4075C60.6595 63.5192 60.7474 63.4554 60.7154 62.9605L60.6915 62.5374L60.2356 62.5135C59.8037 62.4896 59.7717 62.5055 59.7318 62.6811Z" fill="#56E3D3"/>
<path d="M59.3879 64.3334C59.2919 64.4611 59.2119 64.6048 59.2119 64.6527C59.2119 64.8283 59.7158 65.2114 59.9557 65.2114C60.0996 65.2114 60.4275 64.6207 60.3715 64.4771C60.3316 64.3893 59.7477 64.0939 59.6038 64.0939C59.5798 64.0939 59.4838 64.1977 59.3879 64.3334Z" fill="#56E3D3"/>
<path d="M58.3162 65.4749C58.0523 65.6904 58.0443 65.7224 58.2522 66.1534C58.3642 66.3849 58.4681 66.4886 58.5801 66.4886C58.796 66.4886 59.2119 66.1694 59.2119 66.0097C59.2119 65.882 58.684 65.2913 58.5801 65.2913C58.5561 65.2993 58.4361 65.3791 58.3162 65.4749Z" fill="#56E3D3"/>
<path d="M54.7094 66.0656C54.6774 66.0895 54.6534 66.305 54.6534 66.5365C54.6534 66.9755 54.7174 67.0474 55.1012 67.0474C55.4771 67.0474 55.6131 66.9117 55.6131 66.5445C55.6131 66.3529 55.5731 66.1613 55.5171 66.1055C55.4131 66.0017 54.7973 65.9698 54.7094 66.0656Z" fill="#56E3D3"/>
<path d="M56.6048 66.1214C56.5808 66.1773 56.5728 66.3848 56.5888 66.5764L56.6128 66.9276H57.0526C57.4685 66.9276 57.4925 66.9196 57.5165 66.7121C57.5325 66.5924 57.4845 66.3928 57.4125 66.2571C57.3085 66.0416 57.2446 66.0097 56.9646 66.0097C56.7727 66.0097 56.6288 66.0496 56.6048 66.1214Z" fill="#56E3D3"/>
<path d="M13.0507 29.5873C12.8427 29.6431 12.8747 29.7229 13.2266 30.0422C13.6185 30.3934 13.7464 30.4014 13.9064 30.0901C14.0583 29.7948 14.0583 29.6431 13.8984 29.5793C13.7624 29.5234 13.2666 29.5314 13.0507 29.5873Z" fill="#56E3D3"/>
<path d="M14.8581 29.8746C14.7701 30.1061 14.8581 30.4493 15.0101 30.4733C15.274 30.5291 15.5139 30.4174 15.6179 30.2019C15.7378 29.9305 15.6659 29.8507 15.234 29.7948C14.9861 29.7629 14.8981 29.7788 14.8581 29.8746Z" fill="#56E3D3"/>
<path d="M16.5616 29.9863C16.4496 30.1779 16.4176 30.585 16.5056 30.6888C16.6175 30.8245 17.2973 30.8564 17.3133 30.7287C17.3213 30.6808 17.3213 30.5611 17.3213 30.4493C17.3213 30.13 17.3133 30.122 17.1054 30.0263C16.8735 29.9145 16.6095 29.8985 16.5616 29.9863Z" fill="#56E3D3"/>
<path d="M18.249 30.3775C18.1371 30.4813 18.1851 30.9522 18.313 31.0799C18.457 31.2236 18.7449 31.3114 18.9608 31.2715C19.0648 31.2555 19.1128 31.1597 19.1288 30.8963C19.1448 30.7047 19.1208 30.5132 19.0888 30.4813C18.9928 30.3855 18.321 30.2977 18.249 30.3775Z" fill="#56E3D3"/>
<path d="M12.4269 31.1598C12.4269 31.4392 12.4669 31.5429 12.5948 31.6387C12.7548 31.7425 12.8028 31.7425 13.0747 31.5988C13.2506 31.511 13.3866 31.4312 13.3866 31.4072C13.3866 31.3913 13.3226 31.2476 13.2506 31.0879C13.1307 30.8325 13.0907 30.8086 12.7708 30.8086H12.4269V31.1598Z" fill="#56E3D3"/>
<path d="M19.9844 31.048C19.7845 31.4391 19.8725 31.5429 20.3603 31.5109L20.7842 31.487V31.1677C20.7842 30.8484 20.7842 30.8484 20.4483 30.8245C20.1444 30.8005 20.1044 30.8245 19.9844 31.048Z" fill="#56E3D3"/>
<path d="M21.7519 31.0719C21.6799 31.1277 21.5999 31.2954 21.5759 31.455C21.528 31.7344 21.536 31.7424 21.8639 31.8302C22.1518 31.902 22.2157 31.894 22.3517 31.7583C22.5196 31.5907 22.5596 31.1357 22.4077 31.0958C22.0718 30.992 21.8719 30.9841 21.7519 31.0719Z" fill="#56E3D3"/>
<path d="M23.3434 31.5589C23.2714 31.6706 23.2234 31.8542 23.2394 31.9819C23.2634 32.1815 23.2954 32.2054 23.6233 32.2294C24.0232 32.2613 24.1831 32.1256 24.1831 31.7584C24.1831 31.5908 24.1271 31.527 23.9352 31.4551C23.5673 31.3274 23.4793 31.3434 23.3434 31.5589Z" fill="#56E3D3"/>
<path d="M25.0788 31.8302C25.0229 31.8701 24.9589 32.0298 24.9269 32.1894L24.8789 32.4847H25.2788C25.4947 32.4847 25.7106 32.4448 25.7666 32.389C25.8946 32.2612 25.8866 32.0457 25.7586 31.934C25.6067 31.8142 25.2068 31.7504 25.0788 31.8302Z" fill="#56E3D3"/>
<path d="M13.6425 32.2692C13.4986 32.4129 13.3866 32.5725 13.3866 32.6124C13.3866 32.7322 13.8185 33.1233 13.9544 33.1233C14.3143 33.1153 14.4503 32.6843 14.2263 32.2453C14.0664 31.9419 13.9544 31.9419 13.6425 32.2692Z" fill="#56E3D3"/>
<path d="M26.6783 32.1017C26.5504 32.2294 26.5584 32.6844 26.6943 32.7961C26.7503 32.844 26.9662 32.9078 27.1742 32.9318L27.5421 32.9877V32.5726C27.5421 32.2054 27.5181 32.1495 27.3341 32.0857C27.0622 31.9819 26.7983 31.9819 26.6783 32.1017Z" fill="#56E3D3"/>
<path d="M28.4777 32.5406C28.3818 32.6284 28.4218 33.0994 28.5257 33.1872C28.5817 33.243 28.7497 33.2909 28.9016 33.2989C29.1495 33.3229 29.1815 33.2989 29.2855 33.0275C29.3815 32.7801 29.3815 32.7003 29.3015 32.6045C29.1975 32.4847 28.5817 32.4368 28.4777 32.5406Z" fill="#56E3D3"/>
<path d="M30.1972 33.0435C30.0692 33.3947 30.1492 33.5225 30.4931 33.5225C30.813 33.5225 30.9809 33.4107 30.9809 33.1952C30.9809 33.0196 30.845 32.9158 30.5331 32.852C30.3011 32.8041 30.2691 32.82 30.1972 33.0435Z" fill="#56E3D3"/>
<path d="M31.8606 33.1632C31.6767 33.6501 31.8047 33.9215 32.2285 33.9215C32.5244 33.9215 32.5404 33.9055 32.6124 33.5463C32.6604 33.3388 32.6364 33.275 32.4844 33.1792C32.1086 32.9397 31.9486 32.9317 31.8606 33.1632Z" fill="#56E3D3"/>
<path d="M14.5542 33.6102C14.2903 33.8177 14.2903 33.8736 14.5942 34.2488C14.8741 34.6 14.9301 34.6159 15.13 34.4164C15.4819 34.0652 15.4899 34.0332 15.218 33.7299C14.9301 33.3947 14.8421 33.3787 14.5542 33.6102Z" fill="#56E3D3"/>
<path d="M33.4522 33.7779C33.3722 34.0892 33.3802 34.1291 33.5481 34.2648C33.6601 34.3526 33.8201 34.4005 33.972 34.3845C34.2039 34.3606 34.2199 34.3366 34.2439 34.0014C34.2759 33.6023 34.14 33.4426 33.7641 33.4426C33.5721 33.4426 33.5321 33.4826 33.4522 33.7779Z" fill="#56E3D3"/>
<path d="M35.0996 34.2088C35.0276 34.3844 35.0036 34.5361 35.0436 34.576C35.0836 34.6159 35.2915 34.6399 35.5075 34.6239L35.8993 34.6V34.2807C35.8993 33.9614 35.8993 33.9614 35.5634 33.9374C35.2436 33.9135 35.2196 33.9295 35.0996 34.2088Z" fill="#56E3D3"/>
<path d="M36.883 34.161C36.7311 34.2568 36.6111 34.7038 36.7151 34.8075C36.7551 34.8475 36.979 34.9033 37.2029 34.9353L37.6188 34.9832V34.616C37.6188 34.4164 37.5948 34.2328 37.5628 34.2169C37.4029 34.1211 37.003 34.0892 36.883 34.161Z" fill="#56E3D3"/>
<path d="M38.5945 34.8874L38.6185 35.3184L38.9624 35.3424L39.2983 35.3663V35.0071C39.2983 34.6 39.2903 34.6 38.8744 34.5202L38.5705 34.4644L38.5945 34.8874Z" fill="#56E3D3"/>
<path d="M15.5779 35.063L15.3619 35.2466L15.6259 35.5419C15.9218 35.8852 16.0177 35.9011 16.3056 35.6537L16.5136 35.4781L16.2177 35.1747C16.0497 35.0151 15.8898 34.8794 15.8578 34.8794C15.8258 34.8794 15.6978 34.9592 15.5779 35.063Z" fill="#56E3D3"/>
<path d="M40.346 35.0231C40.298 35.1109 40.258 35.2785 40.258 35.3902C40.258 35.5818 40.282 35.5978 40.6419 35.5978C41.0417 35.5978 41.2177 35.502 41.2177 35.2705C41.2177 35.0869 41.0417 34.9592 40.7138 34.9033C40.4819 34.8714 40.4179 34.8954 40.346 35.0231Z" fill="#56E3D3"/>
<path d="M41.9934 35.1748C41.9614 35.1987 41.9374 35.3823 41.9374 35.5739C41.9374 35.949 41.9934 36.0049 42.4253 36.0289C42.6492 36.0368 42.6892 36.0049 42.7852 35.7335C42.8811 35.4621 42.8731 35.4142 42.7372 35.2785C42.5852 35.1269 42.1054 35.055 41.9934 35.1748Z" fill="#56E3D3"/>
<path d="M43.6729 35.6536C43.6409 35.6776 43.6169 35.8372 43.6169 36.0048C43.6169 36.2682 43.6489 36.3082 43.8648 36.388C44.2167 36.5077 44.2407 36.5077 44.3766 36.2363C44.5286 35.941 44.5286 35.7095 44.3686 35.6456C44.2007 35.5818 43.7368 35.5818 43.6729 35.6536Z" fill="#56E3D3"/>
<path d="M16.6815 36.396C16.4496 36.7073 16.4576 36.8031 16.7455 37.0745C16.9854 37.298 16.9934 37.306 17.2094 37.1783C17.5133 36.9947 17.5213 36.7313 17.2333 36.412C17.1054 36.2763 16.9614 36.1566 16.9214 36.1566C16.8895 36.1566 16.7775 36.2603 16.6815 36.396Z" fill="#56E3D3"/>
<path d="M17.9051 37.6891C17.8171 37.729 17.6812 37.8568 17.5932 37.9685C17.4493 38.1681 17.4493 38.1681 17.7132 38.4394C18.0171 38.7587 18.145 38.7747 18.393 38.5432C18.5769 38.3676 18.5769 38.3676 18.4249 38.0803C18.225 37.6811 18.1051 37.5933 17.9051 37.6891Z" fill="#56E3D3"/>
<path d="M18.7289 39.1578C18.425 39.3174 18.4489 39.5409 18.7848 39.8922L19.0728 40.1875L19.3607 39.8762L19.6566 39.5569L19.3447 39.2935C18.9928 38.9902 19.0168 38.9982 18.7289 39.1578Z" fill="#56E3D3"/>
<path d="M19.7365 40.6664C19.5126 40.85 19.5126 40.8659 19.6246 41.0815C19.7765 41.3528 20.0084 41.4007 20.3363 41.2251C20.6242 41.0815 20.6402 41.0016 20.4323 40.7941C20.1204 40.4828 19.9925 40.4588 19.7365 40.6664Z" fill="#56E3D3"/>
<path d="M20.7682 42.0154C20.5443 42.2469 20.5363 42.4704 20.7282 42.646C20.9281 42.8296 21.1921 42.8136 21.472 42.6141L21.7039 42.4465L21.488 42.1352C21.2321 41.776 21.0241 41.744 20.7682 42.0154Z" fill="#56E3D3"/>
<path d="M21.6959 43.4122C21.536 43.5479 21.52 43.5879 21.6079 43.7156C21.6559 43.7954 21.7359 43.9391 21.7839 44.0349C21.8798 44.2663 22.1198 44.2663 22.4237 44.0428C22.7116 43.8353 22.7276 43.6677 22.4796 43.4362C22.2477 43.2207 21.9438 43.2127 21.6959 43.4122Z" fill="#56E3D3"/>
<path d="M22.7995 44.8411C22.6156 45.0406 22.6316 45.1524 22.8635 45.3838C23.0155 45.5355 23.0954 45.5595 23.1994 45.5036C23.2794 45.4637 23.4073 45.4078 23.4873 45.3838C23.7192 45.312 23.7352 45.1125 23.5353 44.8969C23.3114 44.6655 22.9835 44.6415 22.7995 44.8411Z" fill="#56E3D3"/>
<path d="M23.8712 46.182C23.6553 46.4534 23.6633 46.621 23.8872 46.8366C24.0712 47.0042 24.0712 47.0042 24.3271 46.8525C24.615 46.6769 24.639 46.5811 24.4551 46.2299C24.3031 45.9186 24.0952 45.9027 23.8712 46.182Z" fill="#56E3D3"/>
<path d="M24.9589 47.6029C24.623 47.9062 24.615 47.9461 24.8149 48.1856C25.0069 48.4171 25.0788 48.4171 25.3747 48.1616C25.6707 47.9142 25.6866 47.7386 25.4387 47.5071L25.2548 47.3315L24.9589 47.6029Z" fill="#56E3D3"/>
<path d="M25.9426 48.9679C25.7906 49.1355 25.7666 49.1993 25.8306 49.4149C25.8706 49.5585 25.9666 49.7102 26.0465 49.7581C26.1665 49.8299 26.2305 49.798 26.4304 49.5825C26.7103 49.2712 26.7103 49.2472 26.4944 48.9758C26.2945 48.7204 26.1825 48.7124 25.9426 48.9679Z" fill="#56E3D3"/>
<path d="M27.0062 50.3567C26.7663 50.5562 26.7743 50.7717 27.0142 50.9952L27.2141 51.1788L27.4541 51.0032C27.734 50.8037 27.75 50.7638 27.582 50.4445C27.4381 50.1731 27.2621 50.1491 27.0062 50.3567Z" fill="#56E3D3"/>
<path d="M28.0539 51.7456L27.758 52.017L27.9339 52.3123C28.1419 52.6476 28.1899 52.6556 28.5018 52.4241C28.7657 52.2325 28.8057 52.033 28.6217 51.8813C28.5577 51.8254 28.5018 51.7376 28.5018 51.6738C28.5018 51.4583 28.3338 51.4822 28.0539 51.7456Z" fill="#56E3D3"/>
<path d="M29.0456 53.0068C28.6937 53.1904 28.6617 53.3739 28.9096 53.7252C29.1175 54.0205 29.3175 54.0205 29.5734 53.7092C29.8293 53.4059 29.8293 53.3739 29.5654 53.0866L29.3415 52.8471L29.0456 53.0068Z" fill="#56E3D3"/>
<path d="M30.0053 54.4915C29.7253 54.6351 29.7173 54.8586 29.9893 55.0662C30.2692 55.2817 30.4291 55.2737 30.653 55.0422C30.829 54.8586 30.829 54.8427 30.709 54.6032C30.5651 54.3238 30.3651 54.2919 30.0053 54.4915Z" fill="#56E3D3"/>
<path d="M31.1569 55.6568C30.933 55.8963 30.933 56.04 31.1649 56.2555C31.3968 56.471 31.4848 56.471 31.7807 56.2555C32.0846 56.032 32.0846 55.8723 31.7807 55.6488C31.4848 55.4253 31.3728 55.4253 31.1569 55.6568Z" fill="#56E3D3"/>
<path d="M32.3965 56.8941C32.1006 57.2054 32.1246 57.3252 32.5404 57.5487L32.8923 57.7402L33.1003 57.5487C33.2122 57.4449 33.3002 57.3172 33.3002 57.2693C33.3002 57.1575 32.8044 56.6706 32.6924 56.6706C32.6444 56.6706 32.5164 56.7744 32.3965 56.8941Z" fill="#56E3D3"/>
</svg>
