<svg width="125" height="125" viewBox="0 0 125 125" fill="none" xmlns="http://www.w3.org/2000/svg">
<path d="M18.99 38.5001H17.99V39.5001H18.99V38.5001ZM16.99 38.5001H15.99V39.5001H16.99V38.5001ZM14.99 38.5001H13.99V39.5001H14.99V38.5001ZM12.99 38.5001H11.99V39.5001H12.99V38.5001ZM10.99 38.5001C10.644 38.5462 10.307 38.644 9.99 38.7901L10.41 39.6901C10.6256 39.5903 10.8547 39.5229 11.09 39.4901L10.94 38.4901L10.99 38.5001ZM9.2 39.3501C9.1 39.4368 9 39.5368 8.9 39.6501H8.78C8.7114 39.7233 8.65103 39.8038 8.6 39.8901V39.8901L9.45 40.4201C9.57667 40.3071 9.71397 40.2066 9.86 40.1201L9.2 39.3501ZM8.14 41.0301C8.07987 41.2426 8.0397 41.4602 8.02 41.6801V41.6801V41.7501H9.02C9.0231 41.5102 9.0567 41.2716 9.12 41.0401L8.12 40.7601L8.14 41.0301ZM9 43.0301H8V44.0301H9V43.0301ZM9 45.0301H8V46.0301H9V45.0301ZM9 47.0301H8V48.0301H9V47.0301ZM9 49.0301H8V49.5001C8.00488 49.55 8.00488 49.6002 8 49.6501L9 49.5001C8.99008 49.3736 8.99008 49.2466 9 49.1201V48.6501V49.0301ZM9.24 50.5601L8.33 50.9801C8.39 51.1101 8.45 51.2201 8.52 51.3401H8.69L8.86 51.5501L9.61 50.8901C9.4505 50.7109 9.31902 50.5086 9.22 50.2901L9.24 50.5601ZM10.17 51.6201L9.63 52.4701H9.71H9.86C9.98593 52.5415 10.1162 52.6049 10.25 52.6601H10.4L10.59 52.7201L10.87 51.7201C10.6404 51.651 10.4215 51.5501 10.22 51.4201L10.17 51.6201ZM12.53 52.0101H11.53V53.0101H12.53V52.0101ZM14.53 52.0101H13.53V53.0101H14.53V52.0101ZM16.53 52.0101H15.53V53.0101H16.53V52.0101ZM18.53 52.0101H17.53V53.0101H18.53V52.0101ZM20.06 51.7801C19.8444 51.8799 19.6153 51.9473 19.38 51.9801L19.53 52.9801H19.69C19.9627 52.9203 20.2277 52.8297 20.48 52.7101L20.06 51.8101V51.7801ZM21.12 50.8401C20.9909 51.0454 20.8326 51.2306 20.65 51.3901L21.31 52.1401C21.5629 51.9088 21.7817 51.6428 21.96 51.3501L21.12 50.8101V50.8401ZM22.51 49.5001H21.51C21.5069 49.7368 21.4733 49.9721 21.41 50.2001L22.41 50.4701H22.49L22.51 49.5001ZM22.51 47.5001H21.51V48.5001H22.51V47.5001ZM22.51 45.5001H21.51V46.5001H22.51V45.5001ZM22.51 43.5001H21.51V44.5001H22.51V43.5001ZM22.51 41.5001L21.51 41.6501C21.5199 41.7799 21.5199 41.9103 21.51 42.0401V42.4901H22.51V42.0401C22.5203 41.9036 22.5203 41.7666 22.51 41.6301V41.5001ZM21.67 39.7101L20.86 40.3501C21.0195 40.5293 21.151 40.7316 21.25 40.9501L22.15 40.5201C22.1 40.4301 22.05 40.3401 21.99 40.2501H21.86C21.7814 40.134 21.6945 40.0237 21.6 39.9201L21.67 39.7101ZM19.96 38.6401L19.68 39.6401C19.9108 39.7014 20.1303 39.7993 20.33 39.9301L20.87 39.0801L20.49 38.8701H19.96V38.6401Z" fill="#56E3D3"/>
<path d="M106.37 27.3501C106.688 27.3501 106.993 27.4765 107.218 27.7016C107.444 27.9266 107.57 28.2318 107.57 28.5501V42.8401C107.57 42.9977 107.539 43.1537 107.479 43.2993C107.418 43.4449 107.33 43.5772 107.218 43.6886C107.107 43.8001 106.975 43.8884 106.829 43.9488C106.684 44.0091 106.528 44.0401 106.37 44.0401H91.6499C91.3308 44.0401 91.0245 43.914 90.7979 43.6892C90.5712 43.4645 90.4426 43.1593 90.4399 42.8401V28.5901C90.4359 28.4287 90.4643 28.2681 90.5233 28.1178C90.5823 27.9675 90.6708 27.8306 90.7836 27.715C90.8963 27.5995 91.0311 27.5077 91.1799 27.445C91.3286 27.3823 91.4885 27.35 91.6499 27.3501H106.37ZM106.37 26.3501H91.6499C91.0655 26.3501 90.5049 26.5816 90.0908 26.9939C89.6766 27.4061 89.4426 27.9657 89.4399 28.5501V42.8401C89.4399 43.1299 89.4972 43.4167 89.6084 43.6843C89.7195 43.9519 89.8825 44.1949 90.0878 44.3993C90.2932 44.6037 90.5369 44.7655 90.805 44.8755C91.073 44.9855 91.3602 45.0414 91.6499 45.0401H106.37C106.953 45.0401 107.513 44.8083 107.926 44.3957C108.338 43.9832 108.57 43.4236 108.57 42.8401V28.5901C108.567 28.0074 108.335 27.4494 107.923 27.0374C107.511 26.6254 106.953 26.3927 106.37 26.3901V26.3501Z" fill="#56E3D3"/>
<path d="M94.74 87.3501C95.7126 87.3527 96.6445 87.7402 97.3322 88.4279C98.0199 89.1156 98.4074 90.0476 98.41 91.0201V100.35C98.4074 101.322 98.0196 102.253 97.3316 102.939C96.6436 103.625 95.7117 104.01 94.74 104.01H84.96C84.4786 104.011 84.0015 103.918 83.5563 103.734C83.1111 103.551 82.7065 103.282 82.3656 102.942C82.0246 102.602 81.7542 102.198 81.5696 101.753C81.385 101.308 81.29 100.832 81.29 100.35V91.0401C81.2874 90.5565 81.3804 90.0771 81.5636 89.6295C81.7469 89.1819 82.0168 88.775 82.3579 88.4321C82.6989 88.0892 83.1044 87.817 83.551 87.6314C83.9975 87.4457 84.4764 87.3501 84.96 87.3501H94.74ZM94.74 86.3501H84.96C83.7215 86.3501 82.5336 86.8421 81.6579 87.7179C80.7821 88.5937 80.29 89.7815 80.29 91.0201V100.35C80.2927 101.587 80.7859 102.772 81.6614 103.646C82.5369 104.519 83.7232 105.01 84.96 105.01H94.74C95.9769 105.01 97.1632 104.519 98.0387 103.646C98.9142 102.772 99.4074 101.587 99.41 100.35V91.0401C99.4127 90.4251 99.2938 89.8157 99.0603 89.2468C98.8268 88.6779 98.4832 88.1607 98.0493 87.725C97.6154 87.2892 97.0997 86.9434 96.5318 86.7075C95.9639 86.4715 95.355 86.3501 94.74 86.3501V86.3501Z" fill="#56E3D3"/>
<path d="M57.83 62.7501H46.86C46.2966 62.7501 45.84 63.2068 45.84 63.7701V74.7401C45.84 75.3035 46.2966 75.7601 46.86 75.7601H57.83C58.3933 75.7601 58.85 75.3035 58.85 74.7401V63.7701C58.85 63.2068 58.3933 62.7501 57.83 62.7501Z" stroke="#56E3D3" stroke-miterlimit="10"/>
<path d="M115.46 54.8301H114.46V55.8301H115.46V54.8301ZM113.46 54.8301H112.46V55.8301H113.46V54.8301ZM111.46 54.8301H110.46V55.8301H111.46V54.8301ZM109.46 54.8301H108.46V55.8301H109.46V54.8301ZM107.46 54.8301H106.46V55.8301H107.46V54.8301ZM105.46 54.8301H104.46V55.8301H105.46V54.8301ZM103.46 54.8301H102.46V55.8301H103.46V54.8301ZM101.46 54.8301H100.46V55.8301H101.46V54.8301ZM99.46 54.8301H98.46V55.8301H99.46V54.8301ZM97.46 54.8301H96.65H96.46L96.68 55.8301C96.8096 55.8153 96.9405 55.8153 97.07 55.8301H97.46V54.8301ZM95.54 55.2801C95.2651 55.4667 95.022 55.6963 94.82 55.9601L95.63 56.5601C95.7552 56.3865 95.9111 56.2374 96.09 56.1201L95.54 55.2801ZM94.38 56.8601C94.347 57.0185 94.3236 57.1788 94.31 57.3401V57.5701H95.31V57.3401C95.308 57.1741 95.3316 57.0089 95.38 56.8501L94.38 56.5801V56.8601ZM95.28 58.8601H94.28V59.8601H95.28V58.8601ZM95.28 60.8601H94.28V61.8601H95.28V60.8601ZM95.28 62.8601H94.28V63.8601H95.28V62.8601V62.8601ZM95.28 64.8601H94.28V65.8601H95.28V64.8601ZM95.28 66.8601H94.28V67.8601H95.28V66.8601ZM95.28 68.8601H94.28V69.8601H95.28V68.8601ZM95.28 70.8601H94.28V71.8601H95.28V70.8601ZM95.28 72.8601H94.28V73.8601H95.28V72.8601ZM95.28 74.8601H94.28V75.7401V75.8101H95.28V74.8101V74.8601ZM95.42 76.4401L94.5 76.8301C94.594 77.0529 94.7186 77.2616 94.87 77.4501V77.4501L94.99 77.5901L95.72 76.9001C95.5687 76.749 95.4496 76.5686 95.37 76.3701L95.42 76.4401ZM96.28 77.3501L95.84 78.2501L96.15 78.3801H96.35H96.59H96.8L96.9 77.3801C96.6844 77.3636 96.4739 77.3059 96.28 77.2101V77.3501ZM98.8 77.5301H97.8V78.5301H98.8V77.5301ZM100.8 77.5301H99.8V78.5301H100.8V77.5301ZM102.8 77.5301H101.8V78.5301H102.8V77.5301ZM104.8 77.5301H103.8V78.5301H104.8V77.5301ZM106.8 77.5301H105.8V78.5301H106.8V77.5301ZM108.8 77.5301H107.8V78.5301H108.8V77.5301ZM110.8 77.5301H109.8V78.5301H110.8V77.5301ZM112.8 77.5301H111.8V78.5301H112.8V77.5301ZM114.8 77.5301H113.8V78.5301H114.8V77.5301ZM116.29 77.3301C116.099 77.4278 115.893 77.492 115.68 77.5201L115.8 78.5201H115.93C116.07 78.5013 116.207 78.4678 116.34 78.4201H116.51L116.75 78.3101L116.29 77.4201V77.3301ZM117.13 76.3901C117.052 76.5931 116.937 76.7796 116.79 76.9401L117.54 77.6001L117.6 77.5301H117.86L117.97 77.2901L117.04 76.9201L117.13 76.3901ZM117.25 75.7401H118.25H117.25ZM118.25 74.7401H117.25V75.7401H118.25V74.7401ZM118.25 72.7401H117.25V73.7401H118.25V72.7401ZM118.25 70.7401H117.25V71.7401H118.25V70.7401ZM118.25 68.7401H117.25V69.7401H118.25V68.7401ZM118.25 66.7401H117.25V67.7401H118.25V66.7401ZM118.25 64.7401H117.25V65.7401H118.25V64.7401ZM118.25 62.7401H117.25V63.7401H118.25V62.7401ZM118.25 60.7401H117.25V61.7401H118.25V60.7401ZM118.25 58.7401H117.25V59.7401H118.25V58.7401ZM118.12 56.7401L117.12 57.0301C117.171 57.2056 117.198 57.3873 117.2 57.5701V57.7201H118.2V57.5701C118.191 57.3456 118.151 57.1234 118.08 56.9101L118.12 56.7401ZM116.92 55.1901L116.4 56.0401C116.582 56.1535 116.741 56.2992 116.87 56.4701L117.66 55.8501C117.535 55.6898 117.39 55.5454 117.23 55.4201H117.16C117.09 55.3601 117.02 55.3201 116.95 55.2701L116.92 55.1901ZM115.46 54.7801V55.7801C115.573 55.7705 115.687 55.7705 115.8 55.7801L115.99 54.7801C115.862 54.7523 115.731 54.7356 115.6 54.7301H115.46V54.7801Z" fill="#56E3D3"/>
<path d="M57.19 87.6301C55.4535 87.6301 53.756 88.1451 52.3121 89.1098C50.8683 90.0746 49.7429 91.4458 49.0784 93.0502C48.4138 94.6545 48.24 96.4199 48.5787 98.123C48.9175 99.8262 49.7537 101.391 50.9816 102.619C52.2095 103.846 53.774 104.683 55.4771 105.021C57.1803 105.36 58.9457 105.186 60.55 104.522C62.1543 103.857 63.5256 102.732 64.4903 101.288C65.4551 99.8442 65.97 98.1467 65.97 96.4101C65.9714 95.2568 65.7452 94.1145 65.3044 93.0486C64.8636 91.9828 64.2169 91.0144 63.4014 90.1988C62.5858 89.3832 61.6174 88.7366 60.5516 88.2958C59.4857 87.855 58.3434 87.6288 57.19 87.6301V87.6301ZM57.19 102.4C55.9669 102.402 54.7707 102.041 53.7529 101.363C52.735 100.684 51.9414 99.7194 51.4724 98.5897C51.0034 97.4601 50.8802 96.2167 51.1183 95.0169C51.3564 93.8172 51.9452 92.7151 52.8101 91.8502C53.675 90.9853 54.7771 90.3965 55.9768 90.1584C57.1766 89.9203 58.42 90.0435 59.5496 90.5125C60.6793 90.9815 61.6444 91.7751 62.3227 92.793C63.001 93.8108 63.362 95.007 63.36 96.2301C63.36 97.8665 62.71 99.4359 61.5529 100.593C60.3958 101.75 58.8264 102.4 57.19 102.4V102.4Z" fill="#56E3D3"/>
<path d="M44.61 68.9501L18.72 69.3501C18.3122 69.3554 17.9073 69.2796 17.529 69.1272C17.1507 68.9748 16.8064 68.7488 16.5162 68.4623C16.2259 68.1757 15.9955 67.8344 15.8382 67.4581C15.6809 67.0818 15.5999 66.678 15.6 66.2701V52.9801" stroke="#56E3D3" stroke-width="0.5" stroke-miterlimit="10" stroke-linecap="round"/>
<path d="M43.76 67.9401L43.6 68.1301L44.51 68.9501L43.62 69.8101L43.8 69.9901L44.88 68.9501L43.76 67.9401Z" fill="#56E3D3"/>
<path d="M89.56 35.7001H81.2C80.2572 35.7026 79.3531 36.0748 78.6818 36.7367C78.0105 37.3986 77.6257 38.2975 77.61 39.2401L77.17 66.4501C77.1595 67.2626 76.8293 68.0384 76.2509 68.6092C75.6726 69.1801 74.8926 69.5001 74.08 69.5001L59.74 69.6301" stroke="#56E3D3" stroke-width="0.5" stroke-miterlimit="10"/>
<path d="M88.7299 34.6801L88.5599 34.8601L89.4699 35.7001L88.5599 36.5401L88.7299 36.7201L89.8299 35.7001L88.7299 34.6801Z" fill="#56E3D3"/>
<path d="M106.96 78.3501V95.1701C106.96 95.473 106.9 95.7729 106.784 96.0526C106.668 96.3323 106.498 96.5863 106.283 96.8C106.068 97.0137 105.813 97.1829 105.533 97.2979C105.253 97.4129 104.953 97.4714 104.65 97.4701H99.4301" stroke="#56E3D3" stroke-width="0.5" stroke-miterlimit="10"/>
<path d="M105.94 79.15L106.12 79.32L106.96 78.41L107.8 79.32L107.98 79.15L106.96 78.04L105.94 79.15Z" fill="#56E3D3"/>
<path d="M80.61 96.3501L75.61 96.4601C74.8143 96.4601 74.0513 96.7762 73.4887 97.3388C72.926 97.9014 72.61 98.6644 72.61 99.4601L72.51 107.16C72.51 107.956 72.1939 108.719 71.6313 109.281C71.0687 109.844 70.3056 110.16 69.51 110.16H59.28C58.8818 110.167 58.4863 110.094 58.1166 109.946C57.7468 109.798 57.4102 109.579 57.1263 109.299C56.8424 109.02 56.6169 108.687 56.463 108.32C56.3092 107.953 56.2299 107.558 56.23 107.16V103.8" stroke="#56E3D3" stroke-width="0.5" stroke-miterlimit="10"/>
<path d="M79.76 95.3701L79.59 95.5501L80.51 96.3801L79.63 97.2301L79.8 97.4101L80.88 96.3701L79.76 95.3701Z" fill="#56E3D3"/>
<path d="M48.4 96.4002H36.78C35.4168 96.4002 34.1094 95.8586 33.1455 94.8947C32.1815 93.9307 31.64 92.6234 31.64 91.2602V21.1402C31.64 19.7769 32.1815 18.4696 33.1455 17.5056C34.1094 16.5417 35.4168 16.0002 36.78 16.0002H93.68C94.3584 15.9949 95.0311 16.1239 95.6593 16.3799C96.2875 16.6358 96.8589 17.0136 97.3404 17.4914C97.822 17.9692 98.2042 18.5376 98.465 19.1639C98.7258 19.7901 98.86 20.4618 98.86 21.1402V26.5902" stroke="#56E3D3" stroke-miterlimit="10" stroke-dasharray="1 1"/>
</svg>
