<svg width="125" height="125" viewBox="0 0 125 125" fill="none" xmlns="http://www.w3.org/2000/svg">
<path d="M106.378 94.6999L71.2779 104.7C70.4729 104.931 69.6317 105.009 68.7979 104.93L20.7979 100.64C20.4529 100.622 20.1269 100.477 19.8825 100.232C19.6381 99.9882 19.4926 99.6623 19.474 99.3173C19.4553 98.9724 19.5649 98.6327 19.7816 98.3637C19.9984 98.0946 20.3069 97.9152 20.6479 97.8599L34.8479 94.2799L69.2979 97.3599C70.2696 97.4501 71.2497 97.3586 72.1879 97.0899L94.6479 90.6899L106.148 91.9199C106.498 91.9214 106.835 92.0541 107.093 92.2919C107.35 92.5297 107.509 92.8554 107.537 93.2045C107.566 93.5536 107.463 93.9009 107.249 94.1778C107.034 94.4546 106.723 94.641 106.378 94.6999Z" fill="#56E3D3"/>
<path d="M62.7679 76.87L60.6179 77.42" stroke="#56E3D3" stroke-miterlimit="10"/>
<path d="M78.4479 78.4399L113.448 82.2999C113.824 82.3415 114.174 82.5126 114.438 82.7841C114.702 83.0556 114.863 83.4104 114.894 83.7877C114.924 84.165 114.823 84.5412 114.607 84.8518C114.39 85.1624 114.072 85.388 113.708 85.4899L72.9279 97.0899C71.9898 97.3595 71.0096 97.4511 70.0379 97.3599L14.2479 92.3599C13.8611 92.3291 13.498 92.1612 13.2239 91.8866C12.9498 91.6119 12.7826 91.2485 12.7525 90.8617C12.7224 90.4748 12.8312 90.0899 13.0595 89.7761C13.2878 89.4624 13.6205 89.2403 13.9979 89.1499L53.6979 79.1499" stroke="#56E3D3" stroke-miterlimit="10"/>
<path d="M70.5779 77.58L68.5679 77.36" stroke="#56E3D3" stroke-miterlimit="10"/>
<path d="M34.8479 94.28L13.5079 92.37C13.1205 92.3409 12.7563 92.1744 12.4808 91.9005C12.2053 91.6267 12.0367 91.2634 12.0053 90.8762C11.974 90.489 12.0819 90.1033 12.3097 89.7887C12.5376 89.474 12.8703 89.2511 13.2479 89.16L53.5379 79.02" stroke="#56E3D3" stroke-miterlimit="10"/>
<path d="M78.3679 78.51L112.728 82.3C113.105 82.3382 113.458 82.5069 113.724 82.7769C113.99 83.0469 114.154 83.4013 114.187 83.7792C114.221 84.157 114.121 84.5346 113.906 84.8469C113.69 85.1592 113.373 85.3866 113.008 85.49L94.6479 90.69" stroke="#56E3D3" stroke-miterlimit="10"/>
<path d="M60.4479 77.27L62.1679 76.84C62.3587 76.796 62.557 76.796 62.7479 76.84V76.84" stroke="#56E3D3" stroke-miterlimit="10"/>
<path d="M68.5679 77.4399L70.4979 77.6499H70.5079" stroke="#56E3D3" stroke-miterlimit="10"/>
<path d="M65.6479 89.2801C66.3922 89.278 67.1076 88.9919 67.6479 88.4801L99.7479 58.4801C100.235 57.9179 100.497 57.1946 100.481 56.4507C100.465 55.7067 100.173 54.9952 99.6623 54.4543C99.1513 53.9134 98.4575 53.5817 97.7157 53.5236C96.9738 53.4655 96.2369 53.6852 95.6479 54.1401L68.9979 79.0501C68.9638 79.0844 68.92 79.1077 68.8724 79.1167C68.8248 79.1257 68.7756 79.1201 68.7312 79.1006C68.6868 79.0812 68.6494 79.0487 68.6238 79.0076C68.5982 78.9664 68.5857 78.9185 68.5879 78.8701L67.5879 10.8701C67.5773 10.0744 67.2511 9.31556 66.681 8.76045C66.1108 8.20534 65.3436 7.89945 64.5479 7.91006C63.7523 7.92067 62.9934 8.24691 62.4383 8.81702C61.8832 9.38713 61.5773 10.1544 61.5879 10.9501" stroke="#56E3D3" stroke-miterlimit="10"/>
<path d="M61.5679 10.92L62.8179 78.92C62.8172 78.9684 62.8026 79.0155 62.7757 79.0557C62.7488 79.096 62.7108 79.1275 62.6664 79.1465C62.6219 79.1656 62.5729 79.1713 62.5252 79.1631C62.4776 79.1548 62.4333 79.1329 62.3979 79.1L35.7079 54.17C35.1148 53.7179 34.3745 53.5029 33.6315 53.567C32.8885 53.631 32.196 53.9695 31.689 54.5165C31.182 55.0634 30.8969 55.7796 30.8893 56.5253C30.8817 57.271 31.1521 57.9929 31.6479 58.55L63.7479 88.55C64.2882 89.0618 65.0036 89.348 65.7479 89.35" stroke="#56E3D3" stroke-miterlimit="10"/>
<path d="M29.9279 14.17H28.9279V15.17H29.9279V14.17ZM27.9279 14.17H26.9279V15.17H27.9279V14.17ZM25.9279 14.17H24.9279V15.17H25.9279V14.17ZM23.9279 14.17H22.9279V15.17H23.9279V14.17ZM21.9279 14.17H20.9279V15.17H21.9279V14.17ZM19.9279 14.17H18.9279V15.17H19.9279V14.17ZM17.9279 14.22C17.7743 14.2494 17.6236 14.2929 17.4779 14.35H17.3879C17.2524 14.4012 17.1218 14.4648 16.9979 14.54L17.5279 15.39C17.7092 15.2785 17.9091 15.2006 18.1179 15.16L17.9279 14.16V14.22ZM16.2579 15.22C16.0541 15.4841 15.8984 15.7819 15.7979 16.1L16.7979 16.4C16.8675 16.1986 16.9688 16.0095 17.0979 15.84L16.3079 15.22H16.2579ZM16.6479 17.11H15.6479V18.11H16.6479V17.11ZM16.6479 19.11H15.6479V20.11H16.6479V19.11ZM16.6479 21.11H15.6479V22.11H16.6479V21.11ZM16.6479 23.11H15.6479V24.11H16.6479V23.11ZM16.6479 25.11H15.6479V26.11H16.6479V25.11ZM16.6479 27.11H15.6479V28.11H16.6479V27.11ZM16.6479 29.11H15.6479V29.33C15.6658 29.4994 15.6993 29.6668 15.7479 29.83L16.7479 29.56C16.6996 29.3978 16.676 29.2293 16.6779 29.06V28.84L16.6479 29.11ZM16.9979 30.4L16.1979 30.99C16.375 31.2339 16.5913 31.4468 16.8379 31.62L17.3879 30.79C17.2085 30.6697 17.0498 30.5211 16.9179 30.35L16.9979 30.4ZM18.0479 31.08L17.8379 32.08H17.9479H18.8279V31.08H18.438C18.3084 31.0948 18.1775 31.0948 18.0479 31.08ZM20.8279 31.08H19.8279V32.08H20.8279V31.08ZM22.8279 31.08H21.8279V32.08H22.8279V31.08ZM24.8279 31.08H23.8279V32.08H24.8279V31.08ZM26.8279 31.08H25.8279V32.08H26.8279V31.08ZM28.8279 31.08H27.8279V32.08H28.8279V31.08ZM30.4879 30.99C30.3004 31.0499 30.1048 31.0802 29.9079 31.08H29.8479V32.08H30.188C30.4094 32.0594 30.6276 32.0124 30.8379 31.94L30.5079 31L30.4879 30.99ZM31.4879 30.18C31.382 30.3667 31.2431 30.5327 31.0779 30.67L31.7179 31.44C31.9729 31.2248 32.1893 30.9678 32.3579 30.68L31.4879 30.18ZM32.728 28.75H31.7279V29.29C31.7333 29.3866 31.7333 29.4834 31.7279 29.58L32.728 29.75C32.728 29.64 32.728 29.54 32.728 29.43V28.89V28.75ZM32.728 26.75H31.7279V27.75H32.728V26.75ZM32.728 24.75H31.7279V25.75H32.728V24.75ZM32.728 22.75H31.7279V23.75H32.728V22.75ZM32.728 20.75H31.7279V21.75H32.728V20.75ZM32.728 18.75H31.7279V19.75H32.728V18.75ZM32.728 16.75L31.7279 16.81V17.75H32.728V16.92C32.7332 16.8668 32.7332 16.8132 32.728 16.76V16.75ZM31.938 14.96L31.2179 15.66C31.3712 15.8116 31.4935 15.9916 31.5779 16.19L32.4979 15.78C32.3572 15.478 32.168 15.201 31.938 14.96ZM30.1579 14.14L30.0779 15.14C30.2932 15.1516 30.504 15.206 30.6979 15.3L31.1179 14.39L30.7979 14.26H30.3479H30.1379L30.1579 14.14Z" fill="#56E3D3"/>
<path d="M92.3179 105.29H82.6479C81.455 105.29 80.4879 106.257 80.4879 107.45V117.86C80.4879 119.053 81.455 120.02 82.6479 120.02H92.3179C93.5109 120.02 94.4779 119.053 94.4779 117.86V107.45C94.4779 106.257 93.5109 105.29 92.3179 105.29Z" fill="#56E3D3"/>
<path d="M96.8779 5H87.0179C85.8305 5 84.8679 5.96259 84.8679 7.15V16.85C84.8679 18.0374 85.8305 19 87.0179 19H96.8779C98.0653 19 99.0279 18.0374 99.0279 16.85V7.15C99.0279 5.96259 98.0653 5 96.8779 5Z" fill="#56E3D3"/>
</svg>
