<svg width="125" height="125" viewBox="0 0 125 125" fill="none" xmlns="http://www.w3.org/2000/svg">
<path d="M56.7997 102.32V91.26" stroke="#56E3D3" stroke-miterlimit="10"/>
<path d="M56.7997 33.04V21.97" stroke="#56E3D3" stroke-miterlimit="10"/>
<path d="M64.8997 102.32V91.26" stroke="#56E3D3" stroke-miterlimit="10"/>
<path d="M64.8997 33.04V21.97" stroke="#56E3D3" stroke-miterlimit="10"/>
<path d="M86.1596 34.0399C86.9005 34.0426 87.6101 34.3387 88.1331 34.8635C88.656 35.3884 88.9496 36.099 88.9496 36.8399V87.4599C88.9496 87.8263 88.8775 88.1891 88.7373 88.5276C88.597 88.8661 88.3915 89.1737 88.1325 89.4327C87.8734 89.6918 87.5658 89.8973 87.2273 90.0375C86.8888 90.1778 86.526 90.2499 86.1596 90.2499H35.5396C35.1724 90.2512 34.8085 90.18 34.4689 90.0404C34.1292 89.9008 33.8205 89.6955 33.5603 89.4363C33.3002 89.1771 33.0938 88.8691 32.953 88.5299C32.8121 88.1908 32.7396 87.8271 32.7396 87.4599V36.8399C32.7396 36.0973 33.0346 35.3851 33.5597 34.86C34.0848 34.3349 34.797 34.0399 35.5396 34.0399H86.1596ZM86.1596 33.0399H35.5396C34.5318 33.0399 33.5653 33.4403 32.8526 34.1529C32.14 34.8656 31.7396 35.8321 31.7396 36.8399V87.4599C31.7423 88.466 32.1438 89.43 32.8561 90.1405C33.5685 90.8509 34.5335 91.2499 35.5396 91.2499H86.1596C86.6573 91.2499 87.1502 91.1519 87.61 90.9614C88.0698 90.771 88.4876 90.4918 88.8396 90.1399C89.1915 89.7879 89.4707 89.3701 89.6611 88.9103C89.8516 88.4505 89.9496 87.9576 89.9496 87.4599V36.8399C89.9496 35.8338 89.5506 34.8688 88.8402 34.1564C88.1297 33.4441 87.1657 33.0426 86.1596 33.0399Z" fill="#56E3D3"/>
<path d="M82.5695 38.39H81.5695V39.39H82.5695V38.39ZM80.5695 38.39H79.5695V39.39H80.5695V38.39ZM78.5695 38.39H77.5695V39.39H78.5695V38.39ZM76.5695 38.39H75.5695V39.39H76.5695V38.39ZM74.5695 38.39H73.5695V39.39H74.5695V38.39ZM72.5695 38.39H71.5695V39.39H72.5695V38.39ZM70.5695 38.39H69.5695V39.39H70.5695V38.39ZM68.5695 38.39H67.5695V39.39H68.5695V38.39ZM66.5695 38.39H65.5695V39.39H66.5695V38.39ZM64.5695 38.39H63.5695V39.39H64.5695V38.39ZM62.5695 38.39H61.5695V39.39H62.5695V38.39ZM60.5695 38.39H59.5695V39.39H60.5695V38.39ZM58.5695 38.39H57.5695V39.39H58.5695V38.39ZM56.5695 38.39H55.5695V39.39H56.5695V38.39ZM54.5695 38.39H53.5695V39.39H54.5695V38.39ZM52.5695 38.39H51.5695V39.39H52.5695V38.39ZM50.5695 38.39H49.5695V39.39H50.5695V38.39ZM48.5695 38.39H47.5695V39.39H48.5695V38.39ZM46.5695 38.39H45.5695V39.39H46.5695V38.39ZM44.5695 38.39H43.5695V39.39H44.5695V38.39ZM42.5695 38.39H41.5695V39.39H42.5695V38.39ZM40.5695 38.39H40.1795C39.9978 38.3973 39.8171 38.4207 39.6395 38.46H39.5795L39.8395 39.46C39.9895 39.4198 40.1442 39.3996 40.2995 39.4H40.5695V38.4V38.39ZM38.6795 38.9C38.408 39.0965 38.1742 39.3404 37.9895 39.62L38.8195 40.18C38.9368 40.0011 39.086 39.8452 39.2595 39.72L38.6795 38.9ZM37.5895 40.53C37.5852 40.5531 37.5852 40.5769 37.5895 40.6V40.94H38.5895V40.6C38.5913 40.4586 38.6081 40.3179 38.6395 40.18L37.6395 39.95L37.5895 40.53ZM38.5095 42.53H37.5095V43.53H38.5095V42.53ZM38.5095 44.53H37.5095V45.53H38.5095V44.53ZM38.5095 46.53H37.5095V47.53H38.5095V46.53ZM38.5095 48.53H37.5095V49.53H38.5095V48.53ZM38.5095 50.53H37.5095V51.53H38.5095V50.53ZM38.5095 52.53H37.5095V53.53H38.5095V52.53ZM38.5095 54.53H37.5095V55.53H38.5095V54.53ZM38.5095 56.53H37.5095V57.53H38.5095V56.53ZM38.5095 58.53H37.5095V59.53H38.5095V58.53ZM38.5095 60.53H37.5095V61.53H38.5095V60.53ZM38.5095 62.53H37.5095V63.53H38.5095V62.53ZM38.5095 64.53H37.5095V65.53H38.5095V64.53ZM38.5095 66.53H37.5095V67.53H38.5095V66.53ZM38.5095 68.53H37.5095V69.53H38.5095V68.53ZM38.5095 70.53H37.5095V71.53H38.5095V70.53ZM38.5095 72.53H37.5095V73.53H38.5095V72.53ZM38.5095 74.53H37.5095V75.53H38.5095V74.53ZM38.5095 76.53H37.5095V77.53H38.5095V76.53ZM38.5095 78.53H37.5095V79.53H38.5095V78.53ZM38.5095 80.53H37.5095V81.53H38.5095V80.53ZM38.5095 82.53H37.5095V82.91C37.5181 83.0685 37.5416 83.2259 37.5795 83.38L38.5795 83.16C38.5642 83.0271 38.5642 82.8929 38.5795 82.76V82.38L38.5095 82.53ZM38.7995 83.89L37.9595 84.44L38.1695 84.72C38.2984 84.8622 38.4426 84.9896 38.5995 85.1L39.1895 84.3C39.0184 84.1681 38.8698 84.0094 38.7495 83.83L38.7995 83.89ZM39.7995 84.64L39.5295 85.64C39.673 85.682 39.8205 85.7088 39.9695 85.72H40.4895V84.72H40.2595C40.094 84.7164 39.9295 84.6929 39.7695 84.65L39.7995 84.64ZM42.5195 84.71H41.5195V85.71H42.5195V84.71ZM44.5195 84.71H43.5195V85.71H44.5195V84.71ZM46.5195 84.71H45.5195V85.71H46.5195V84.71ZM48.5195 84.71H47.5195V85.71H48.5195V84.71ZM50.5195 84.71H49.5195V85.71H50.5195V84.71ZM52.5195 84.71H51.5195V85.71H52.5195V84.71ZM54.5195 84.71H53.5195V85.71H54.5195V84.71ZM56.5195 84.71H55.5195V85.71H56.5195V84.71ZM58.5195 84.71H57.5195V85.71H58.5195V84.71ZM60.5195 84.71H59.5195V85.71H60.5195V84.71ZM62.5195 84.71H61.5195V85.71H62.5195V84.71ZM64.5195 84.71H63.5195V85.71H64.5195V84.71ZM66.5195 84.71H65.5195V85.71H66.5195V84.71ZM68.5195 84.71H67.5195V85.71H68.5195V84.71ZM70.5195 84.71H69.5195V85.71H70.5195V84.71ZM72.5195 84.71H71.5195V85.71H72.5195V84.71ZM74.5195 84.71H73.5195V85.71H74.5195V84.71ZM76.5195 84.71H75.5195V85.71H76.5195V84.71ZM78.5195 84.71H77.5195V85.71H78.5195V84.71ZM80.5195 84.71H79.5195V85.71H80.5195V84.71ZM82.5195 84.71H81.5195V85.71H82.5195V84.71ZM83.7195 84.28C83.5566 84.4185 83.3704 84.5269 83.1695 84.6L83.4995 85.54H84.1595L84.2995 85.44L83.6495 84.67L83.7195 84.28ZM84.3295 83.19C84.2978 83.4 84.2301 83.603 84.1295 83.79L84.9995 84.28C85.0898 84.1261 85.1603 83.9615 85.2095 83.79C85.25 83.6593 85.2801 83.5255 85.2995 83.39L84.2995 83.24L84.3295 83.19ZM85.3295 81.34H84.3295V82.34H85.3295V81.34ZM85.3295 79.34H84.3295V80.34H85.3295V79.34ZM85.3295 77.34H84.3295V78.34H85.3295V77.34ZM85.3295 75.34H84.3295V76.34H85.3295V75.34ZM85.3295 73.34H84.3295V74.34H85.3295V73.34ZM85.3295 71.34H84.3295V72.34H85.3295V71.34ZM85.3295 69.34H84.3295V70.34H85.3295V69.34ZM85.3295 67.34H84.3295V68.34H85.3295V67.34ZM85.3295 65.34H84.3295V66.34H85.3295V65.34ZM85.3295 63.34H84.3295V64.34H85.3295V63.34ZM85.3295 61.34H84.3295V62.34H85.3295V61.34ZM85.3295 59.34H84.3295V60.34H85.3295V59.34ZM85.3295 57.34H84.3295V58.34H85.3295V57.34ZM85.3295 55.34H84.3295V56.34H85.3295V55.34ZM85.3295 53.34H84.3295V54.34H85.3295V53.34ZM85.3295 51.34H84.3295V52.34H85.3295V51.34ZM85.3295 49.34H84.3295V50.34H85.3295V49.34ZM85.3295 47.34H84.3295V48.34H85.3295V47.34ZM85.3295 45.34H84.3295V46.34H85.3295V45.34ZM85.3295 43.34H84.3295V44.34H85.3295V43.34ZM85.3295 41.34H84.3295V42.34H85.3295V41.34ZM84.7395 39.47L83.9495 40.09C84.0791 40.2577 84.1774 40.4474 84.2395 40.65L85.2395 40.35C85.1594 40.1118 85.052 39.8836 84.9195 39.67C84.8896 39.6358 84.8628 39.599 84.8395 39.56L84.7395 39.47ZM83.0695 38.47L82.8795 39.47C83.0884 39.5106 83.2883 39.5885 83.4695 39.7L84.0695 38.76C83.7874 38.5849 83.4756 38.4628 83.1495 38.4L83.0695 38.47Z" fill="#56E3D3"/>
<path d="M116.67 63.92C116.457 74.9165 113.001 85.6052 106.737 94.6453C100.472 103.685 91.6777 110.674 81.4562 114.735C71.2348 118.796 60.0417 119.747 49.2814 117.471C38.5211 115.194 28.6727 109.79 20.9718 101.938C13.2709 94.0851 8.06053 84.1331 5.99428 73.3305C3.92803 62.5278 5.09796 51.3554 9.3573 41.2151C13.6166 31.0748 20.7757 22.4182 29.9363 16.3312C39.0969 10.2443 49.8511 6.99812 60.8496 7" stroke="#56E3D3" stroke-miterlimit="10"/>
<path d="M112.38 67.02L113.07 67.74L116.61 64.3L119.78 68.08L120.55 67.43L116.68 62.83L112.38 67.02Z" fill="#56E3D3"/>
<path d="M74.6996 57.27L65.0096 47.56C63.9041 46.4609 62.4085 45.8439 60.8496 45.8439C59.2906 45.8439 57.795 46.4609 56.6896 47.56L46.9796 57.27C45.8792 58.3708 45.261 59.8636 45.261 61.42C45.261 62.9765 45.8792 64.4693 46.9796 65.57L56.6896 75.28C57.795 76.3792 59.2906 76.9962 60.8496 76.9962C62.4085 76.9962 63.9041 76.3792 65.0096 75.28L74.6996 65.57C75.248 65.027 75.6834 64.3807 75.9805 63.6683C76.2777 62.956 76.4306 62.1919 76.4306 61.42C76.4306 60.6482 76.2777 59.8841 75.9805 59.1718C75.6834 58.4594 75.248 57.8131 74.6996 57.27ZM71.8096 65.76L65.0096 72.5601C64.4648 73.1091 63.8168 73.5449 63.1028 73.8423C62.3888 74.1397 61.623 74.2928 60.8496 74.2928C60.0761 74.2928 59.3103 74.1397 58.5963 73.8423C57.8823 73.5449 57.2343 73.1091 56.6896 72.5601L49.8796 65.76C48.7785 64.6576 48.1601 63.1632 48.1601 61.605C48.1601 60.0469 48.7785 58.5525 49.8796 57.45L56.6896 50.65C57.2356 50.1034 57.8841 49.6697 58.5979 49.3738C59.3117 49.0779 60.0769 48.9256 60.8496 48.9256C61.6223 48.9256 62.3874 49.0779 63.1012 49.3738C63.815 49.6697 64.4635 50.1034 65.0096 50.65L71.8096 57.45C72.3559 57.9953 72.7894 58.6429 73.0851 59.3559C73.3809 60.0689 73.5331 60.8332 73.5331 61.605C73.5331 62.3769 73.3809 63.1412 73.0851 63.8542C72.7894 64.5672 72.3559 65.2148 71.8096 65.76Z" fill="#56E3D3"/>
</svg>
